<svg version="1.1" xmlns="http://www.w3.org/2000/svg" xmlns:xlink="http://www.w3.org/1999/xlink">

  <defs>
    <style>
      g {
        display: none;
      }
      g:target,
      g:target g {
        display: inline;
      }
      .blau {
        color: #096fab;
      }
      .weiss {
        color: #ffffff;
        fill: #F07D01;
      }
      .black {
        color: #000000;
      }
    </style>

    <symbol id="menu" viewBox="0 0 50 50">
      <title>Menü</title>
      <path
        fill="currentColor"
        d="M50,42.525v4.981c0,0.674-0.201,1.26-0.634,1.758C48.957,49.748,48.469,50,47.901,50H2.083
    		c-0.568,0-1.056-0.252-1.465-0.735C0.215,48.767,0,48.181,0,47.507v-4.981c0-0.688,0.215-1.274,0.618-1.787
    		c0.409-0.486,0.897-0.727,1.465-0.727h45.819c0.567,0,1.056,0.24,1.465,0.727C49.799,41.251,50,41.837,50,42.525z M50,22.499v4.999
    		c0,0.689-0.201,1.275-0.634,1.758c-0.409,0.499-0.897,0.741-1.465,0.741H2.083c-0.568,0-1.056-0.242-1.465-0.741
    		C0.215,28.773,0,28.188,0,27.498v-4.999c0-0.688,0.215-1.274,0.618-1.758C1.026,20.258,1.515,20,2.083,20h45.819
    		c0.567,0,1.056,0.258,1.465,0.741C49.799,21.225,50,21.811,50,22.499z M50,2.507v4.999c0,0.655-0.201,1.241-0.634,1.758
    		c-0.409,0.482-0.897,0.74-1.465,0.74H2.083c-0.568,0-1.056-0.258-1.465-0.74C0.215,8.746,0,8.16,0,7.505V2.507
    		c0-0.69,0.215-1.276,0.618-1.758C1.026,0.249,1.515,0,2.083,0h45.819c0.567,0,1.056,0.249,1.465,0.749
    		C49.799,1.23,50,1.816,50,2.507z"/>
    </symbol>
    <symbol id="cross" viewBox="0 0 30 29.937">
      <title>close</title>
      <path fill="currentColor" d="M17.819,14.929L30,27.176l-2.818,2.761L15.001,17.756L2.819,29.937L0,27.176l12.244-12.247
  			L0,2.756L2.819,0l12.182,12.174L27.182,0L30,2.756L17.819,14.929z"/>
    </symbol>
    <symbol id="square" viewBox="0 0 50 50">
      <title>square</title>
      <rect fill="currentColor" width="50" height="50"/>
    </symbol>

    <symbol id="search" viewBox="0.5 300.5 50 50">
      <title>Search</title>
      <path
        fill="currentColor"
        d="M50.163 346.296l-11.854-11.854a1.159 1.159 0 0 0-.83-.342H36.19a20.256 20.256 0 0 0 4.94-13.281c0-11.22-9.091-20.311-20.311-20.311S.507 309.599.507 320.819c0 11.221 9.091 20.312 20.312 20.312 5.078 0 9.716-1.864 13.281-4.94v1.289c0 .313.127.605.342.83l11.854 11.854a1.173 1.173 0 0 0 1.66 0l2.207-2.207a1.174 1.174 0 0 0 0-1.661zm-29.344-9.853c-8.632 0-15.624-6.992-15.624-15.625 0-8.632 6.992-15.623 15.624-15.623s15.625 6.991 15.625 15.623c0 8.633-6.993 15.625-15.625 15.625z"/>
    </symbol>

    <symbol id="arrow-black" viewBox="0.5 300.5 50 50">
      <title>Arrow</title>
      <path
        fill="currentColor"
        d="M24.842 300.893l-2.209 2.209a1.34 1.34 0 0 0 0 1.895l17.313 17.313H1.84c-.74 0-1.339.6-1.339 1.339v3.125c0 .74.6 1.34 1.339 1.34h38.106l-17.313 17.313a1.34 1.34 0 0 0 0 1.894l2.209 2.21a1.34 1.34 0 0 0 1.894 0l23.372-23.372a1.34 1.34 0 0 0 0-1.895l-23.372-23.371a1.337 1.337 0 0 0-1.894 0z"/></symbol>
  </defs>

  <g id="arrow-black-right">
    <use class="black" xlink:href="#arrow-black"/>
  </g>
</svg>
