<?xml version="1.0" encoding="utf-8"?>
<!-- Generator: Adobe Illustrator 16.0.0, SVG Export Plug-In . SVG Version: 6.00 Build 0)  -->
<!DOCTYPE svg PUBLIC "-//W3C//DTD SVG 1.1//EN" "http://www.w3.org/Graphics/SVG/1.1/DTD/svg11.dtd">
<svg version="1.1" id="Ebene_1" xmlns="http://www.w3.org/2000/svg" xmlns:xlink="http://www.w3.org/1999/xlink" x="0px" y="0px"
	 width="423.391px" height="334.707px" viewBox="0 0 423.391 334.707" enable-background="new 0 0 423.391 334.707"
	 xml:space="preserve">
<g>
	<g>
		<g>
			<defs>
				<rect id="SVGID_1_" width="423.781" height="311.568"/>
			</defs>
			<clipPath id="SVGID_2_">
				<use xlink:href="#SVGID_1_"  overflow="visible"/>
			</clipPath>
			<path clip-path="url(#SVGID_2_)" fill="#010101" d="M131.687,139.309c0,0,42.037-19.088,78.452,0c0,0,34.468-19.486,77.298,0
				l13.239-21.077c0,0-59.979-18.688-90.539,12.727c0,0-22.772-31.02-91.303-12.727L131.687,139.309z"/>
		</g>
	</g>
	<g>
		<g>
			<defs>
				<rect id="SVGID_3_" width="423.781" height="311.568"/>
			</defs>
			<clipPath id="SVGID_4_">
				<use xlink:href="#SVGID_3_"  overflow="visible"/>
			</clipPath>
			<path clip-path="url(#SVGID_4_)" fill="#010101" d="M121.563,108.689c0,0,66.584-8.557,88.192,17.195
				c0,0-14.601-29.124-90.919-27.534L121.563,108.689z"/>
		</g>
	</g>
	<g>
		<g>
			<defs>
				<rect id="SVGID_5_" width="423.781" height="311.568"/>
			</defs>
			<clipPath id="SVGID_6_">
				<use xlink:href="#SVGID_5_"  overflow="visible"/>
			</clipPath>
			<path clip-path="url(#SVGID_6_)" fill="#010101" d="M125.261,92.585c0,0,66.389,3.381,84.495,29.427
				c0,0-9.733-26.245-85.468-36.784L125.261,92.585z"/>
		</g>
	</g>
	<g>
		<g>
			<defs>
				<rect id="SVGID_7_" width="423.781" height="311.568"/>
			</defs>
			<clipPath id="SVGID_8_">
				<use xlink:href="#SVGID_7_"  overflow="visible"/>
			</clipPath>
			<path clip-path="url(#SVGID_8_)" fill="#010101" d="M210.139,118.631c0,0-8.168-24.344-82.541-38.815V74.89
				C127.598,74.89,198.256,90.597,210.139,118.631"/>
		</g>
	</g>
	<g>
		<g>
			<defs>
				<rect id="SVGID_9_" width="423.781" height="311.568"/>
			</defs>
			<clipPath id="SVGID_10_">
				<use xlink:href="#SVGID_9_"  overflow="visible"/>
			</clipPath>
			<path clip-path="url(#SVGID_10_)" fill="#010101" d="M210.146,126.782c0,0,16.547-26.843,88.387-16.899l2.145-12.327
				C300.678,97.556,235.457,93.578,210.146,126.782"/>
		</g>
	</g>
	<g>
		<g>
			<defs>
				<rect id="SVGID_11_" width="423.781" height="311.568"/>
			</defs>
			<clipPath id="SVGID_12_">
				<use xlink:href="#SVGID_11_"  overflow="visible"/>
			</clipPath>
			<path clip-path="url(#SVGID_12_)" fill="#010101" d="M209.91,105.445c-5.593-8.368,6.328-18.479,8.855-25.886
				c3.301-9.679-4.883-18.028-11.007-20.115c-1.753-0.596,9.571,1.077,14.161,4.175c7.783,5.256,6.607,15.832,1.453,22.069
				c3.607-4.235,7.217-9.638,6.541-15.562c-1.08-9.486-12.156-14.754-19.107-19.345c-8.56-5.649-17.961-14.244-18.371-25.645
				c-0.372-10.348,5.524-20.004,12.16-25.139c-4.396,4.117-6.117,11.65-6.019,17.477c0.205,12.202,10.354,17.779,19.399,23.434
				c9.779,6.111,20.834,14.211,21.375,27.08c0.465,11.075-7.361,19.149-16.396,24.129C213.896,97.118,209.91,105.445,209.91,105.445
				"/>
		</g>
	</g>
	<g>
		<g>
			<defs>
				<rect id="SVGID_13_" width="423.781" height="311.568"/>
			</defs>
			<clipPath id="SVGID_14_">
				<use xlink:href="#SVGID_13_"  overflow="visible"/>
			</clipPath>
			<path clip-path="url(#SVGID_14_)" fill="#161615" d="M16.716,215.944H0V176.95h14.857c2.586,0,4.817,0.318,6.692,0.949
				c1.876,0.631,3.286,1.487,4.233,2.566c1.712,2.007,2.568,4.275,2.568,6.803c0,3.051-0.966,5.319-2.896,6.806
				c-0.654,0.523-1.111,0.848-1.364,0.976c-0.256,0.131-0.71,0.343-1.366,0.644c2.367,0.52,4.251,1.606,5.653,3.263
				c1.401,1.659,2.104,3.71,2.104,6.164c0,2.714-0.91,5.113-2.731,7.196C25.639,214.736,21.96,215.944,16.716,215.944
				 M8.521,192.738h4.043c2.366,0,4.125-0.259,5.271-0.782c1.146-0.52,1.721-1.644,1.721-3.373s-0.528-2.873-1.585-3.43
				c-1.058-0.56-2.84-0.837-5.354-0.837H8.521V192.738z M8.521,208.581h5.846c2.438,0,4.269-0.306,5.49-0.921
				c1.22-0.614,1.829-1.821,1.829-3.626c0-1.804-0.646-2.992-1.939-3.568c-1.292-0.576-3.358-0.868-6.199-0.868H8.521V208.581z"/>
		</g>
	</g>
	<g>
		<g>
			<defs>
				<rect id="SVGID_15_" width="423.781" height="311.568"/>
			</defs>
			<clipPath id="SVGID_16_">
				<use xlink:href="#SVGID_15_"  overflow="visible"/>
			</clipPath>
			<polygon clip-path="url(#SVGID_16_)" fill="#161615" points="66.534,176.95 66.534,184.702 47.525,184.702 47.525,192.738 
				64.622,192.738 64.622,200.156 47.525,200.156 47.525,208.244 67.135,208.244 67.135,215.944 39.003,215.944 39.003,176.95 			
				"/>
		</g>
	</g>
	<g>
		<g>
			<defs>
				<rect id="SVGID_17_" width="423.781" height="311.568"/>
			</defs>
			<clipPath id="SVGID_18_">
				<use xlink:href="#SVGID_17_"  overflow="visible"/>
			</clipPath>
			<path clip-path="url(#SVGID_18_)" fill="#161615" d="M103.297,215.942l-3.551-8.422H83.74l-3.551,8.422h-9.068l16.497-38.992
				h8.248l16.497,38.992H103.297z M91.77,188.555l-4.806,11.321h9.559L91.77,188.555z"/>
		</g>
	</g>
	<g>
		<g>
			<defs>
				<rect id="SVGID_19_" width="423.781" height="311.568"/>
			</defs>
			<clipPath id="SVGID_20_">
				<use xlink:href="#SVGID_19_"  overflow="visible"/>
			</clipPath>
			<polygon clip-path="url(#SVGID_20_)" fill="#161615" points="144.866,176.95 153.389,176.95 153.389,215.944 144.866,215.944 
				126.677,191.511 126.677,215.944 118.155,215.944 118.155,176.95 126.129,176.95 144.866,202.054 			"/>
		</g>
	</g>
	<g>
		<g>
			<defs>
				<rect id="SVGID_21_" width="423.781" height="311.568"/>
			</defs>
			<clipPath id="SVGID_22_">
				<use xlink:href="#SVGID_21_"  overflow="visible"/>
			</clipPath>
			<path clip-path="url(#SVGID_22_)" fill="#161615" d="M173.079,184.732c-0.818,0.688-1.229,1.6-1.229,2.732
				c0,1.134,0.499,2.036,1.503,2.707c1,0.668,3.312,1.46,6.937,2.369c3.622,0.914,6.436,2.28,8.439,4.104
				c2.001,1.819,3.005,4.479,3.005,7.978c0,3.495-1.284,6.329-3.852,8.504c-2.566,2.176-5.944,3.266-10.134,3.266
				c-6.045,0-11.489-2.287-16.332-6.863l5.08-6.357c4.115,3.68,7.92,5.524,11.417,5.524c1.563,0,2.795-0.343,3.687-1.035
				c0.891-0.685,1.339-1.614,1.339-2.791c0-1.169-0.473-2.098-1.421-2.787c-0.947-0.688-2.822-1.384-5.626-2.094
				c-4.444-1.075-7.694-2.48-9.75-4.211c-2.06-1.727-3.088-4.445-3.088-8.144c0-3.7,1.301-6.554,3.907-8.563
				c2.603-2.009,5.854-3.013,9.751-3.013c2.548,0,5.096,0.447,7.646,1.338c2.548,0.893,4.771,2.159,6.663,3.796l-4.313,6.357
				c-3.314-2.564-6.739-3.848-10.271-3.848C175.019,183.701,173.898,184.045,173.079,184.732"/>
		</g>
	</g>
	<g>
		<g>
			<defs>
				<rect id="SVGID_23_" width="423.781" height="311.568"/>
			</defs>
			<clipPath id="SVGID_24_">
				<use xlink:href="#SVGID_23_"  overflow="visible"/>
			</clipPath>
			<path clip-path="url(#SVGID_24_)" fill="#161615" d="M247.289,215.944h-16.715V176.95h14.857c2.584,0,4.812,0.318,6.688,0.949
				s3.287,1.487,4.232,2.566c1.711,2.007,2.566,4.275,2.566,6.803c0,3.051-0.963,5.319-2.893,6.806
				c-0.656,0.523-1.113,0.848-1.367,0.976c-0.256,0.131-0.709,0.343-1.365,0.644c2.365,0.52,4.252,1.606,5.652,3.263
				c1.402,1.659,2.104,3.71,2.104,6.164c0,2.714-0.908,5.113-2.73,7.196C256.211,214.736,252.533,215.944,247.289,215.944
				 M239.094,192.738h4.043c2.365,0,4.123-0.259,5.271-0.782c1.146-0.52,1.721-1.644,1.721-3.373s-0.527-2.873-1.584-3.43
				c-1.057-0.56-2.84-0.837-5.355-0.837h-4.096V192.738z M239.094,208.581h5.846c2.439,0,4.27-0.306,5.49-0.921
				c1.219-0.614,1.828-1.821,1.828-3.626c0-1.804-0.646-2.992-1.939-3.568s-3.357-0.868-6.197-0.868h-5.025L239.094,208.581
				L239.094,208.581z"/>
		</g>
	</g>
	<g>
		<g>
			<defs>
				<rect id="SVGID_25_" width="423.781" height="311.568"/>
			</defs>
			<clipPath id="SVGID_26_">
				<use xlink:href="#SVGID_25_"  overflow="visible"/>
			</clipPath>
			<path clip-path="url(#SVGID_26_)" fill="#161615" d="M300.33,210.562c-3.863,3.848-8.613,5.772-14.256,5.772
				c-5.648,0-10.4-1.925-14.26-5.772c-3.861-3.849-5.791-8.64-5.791-14.363c0-5.729,1.93-10.518,5.791-14.365
				c3.857-3.85,8.609-5.774,14.26-5.774c5.643,0,10.393,1.924,14.256,5.774c3.859,3.85,5.789,8.637,5.789,14.365
				C306.119,201.923,304.189,206.714,300.33,210.562 M297.434,196.225c0-3.478-1.094-6.441-3.275-8.896
				c-2.188-2.455-4.871-3.683-8.059-3.683s-5.871,1.228-8.057,3.683s-3.277,5.419-3.277,8.896s1.092,6.438,3.277,8.871
				c2.186,2.435,4.869,3.652,8.057,3.652s5.871-1.216,8.059-3.652C296.34,202.66,297.434,199.702,297.434,196.225"/>
		</g>
	</g>
	<g>
		<g>
			<defs>
				<rect id="SVGID_27_" width="423.781" height="311.568"/>
			</defs>
			<clipPath id="SVGID_28_">
				<use xlink:href="#SVGID_27_"  overflow="visible"/>
			</clipPath>
			<path clip-path="url(#SVGID_28_)" fill="#161615" d="M345.451,210.562c-3.863,3.848-8.615,5.772-14.258,5.772
				c-5.646,0-10.398-1.925-14.261-5.772c-3.858-3.849-5.789-8.64-5.789-14.363c0-5.729,1.931-10.518,5.789-14.365
				c3.86-3.85,8.612-5.774,14.261-5.774c5.643,0,10.395,1.924,14.258,5.774c3.856,3.85,5.787,8.637,5.787,14.365
				C351.238,201.923,349.309,206.714,345.451,210.562 M342.555,196.225c0-3.478-1.094-6.441-3.276-8.896
				c-2.188-2.455-4.87-3.683-8.06-3.683c-3.186,0-5.869,1.228-8.055,3.683c-2.188,2.455-3.279,5.419-3.279,8.896
				s1.092,6.438,3.279,8.871c2.186,2.437,4.869,3.652,8.055,3.652c3.188,0,5.871-1.216,8.06-3.652
				C341.461,202.66,342.555,199.702,342.555,196.225"/>
		</g>
	</g>
	<g>
		<g>
			<defs>
				<rect id="SVGID_29_" width="423.781" height="311.568"/>
			</defs>
			<clipPath id="SVGID_30_">
				<use xlink:href="#SVGID_29_"  overflow="visible"/>
			</clipPath>
			<path clip-path="url(#SVGID_30_)" fill="#161615" d="M358.449,176.95h8.521v16.011l14.423-16.011h10.541l-15.185,17.235
				c1.312,1.863,3.731,5.332,7.265,10.406c3.531,5.077,6.172,8.86,7.92,11.352h-9.938l-11.199-15.396l-3.824,4.35v11.046h-8.521
				L358.449,176.95L358.449,176.95z"/>
		</g>
	</g>
	<g>
		<g>
			<defs>
				<rect id="SVGID_31_" width="423.781" height="311.568"/>
			</defs>
			<clipPath id="SVGID_32_">
				<use xlink:href="#SVGID_31_"  overflow="visible"/>
			</clipPath>
			<path clip-path="url(#SVGID_32_)" fill="#161615" d="M405.127,184.732c-0.818,0.688-1.227,1.6-1.227,2.732
				c0,1.134,0.498,2.036,1.502,2.707c1,0.668,3.312,1.46,6.936,2.369c3.623,0.914,6.438,2.28,8.438,4.104
				c2.007,1.819,3.009,4.479,3.009,7.978c0,3.495-1.285,6.329-3.852,8.504c-2.568,2.176-5.948,3.266-10.137,3.266
				c-6.045,0-11.488-2.287-16.332-6.863l5.082-6.357c4.113,3.68,7.92,5.524,11.416,5.524c1.563,0,2.793-0.343,3.687-1.035
				c0.894-0.685,1.339-1.614,1.339-2.791c0-1.169-0.475-2.098-1.419-2.787c-0.95-0.688-2.825-1.384-5.629-2.094
				c-4.44-1.075-7.69-2.48-9.748-4.211c-2.062-1.727-3.089-4.445-3.089-8.144c0-3.7,1.303-6.554,3.906-8.563
				c2.604-2.009,5.854-3.013,9.75-3.013c2.549,0,5.099,0.447,7.648,1.338c2.547,0.893,4.77,2.159,6.664,3.796l-4.314,6.357
				c-3.315-2.564-6.74-3.848-10.271-3.848C407.064,183.701,405.947,184.045,405.127,184.732"/>
		</g>
	</g>
	<g>
		<path fill="#161615" d="M344.811,233.241c-21.957,54.567-74.557,93.099-135.812,93.099c-61.257,0-113.857-38.53-135.813-93.099
			h-8.819c22.395,59.292,78.777,101.466,144.633,101.466c65.856,0,122.237-42.174,144.633-101.466H344.811L344.811,233.241z"/>
	</g>
	<g>
		<g>
			<defs>
				<rect id="SVGID_33_" width="423.781" height="311.568"/>
			</defs>
			<clipPath id="SVGID_34_">
				<use xlink:href="#SVGID_33_"  overflow="visible"/>
			</clipPath>
			<path clip-path="url(#SVGID_34_)" fill="#161615" d="M160.252,26.249c-55.988,19-97.896,69.79-105.098,131.316h8.245
				c7.038-56.879,45.417-103.916,96.853-122.469V26.249z"/>
		</g>
	</g>
	<g>
		<g>
			<defs>
				<rect id="SVGID_35_" width="423.781" height="311.568"/>
			</defs>
			<clipPath id="SVGID_36_">
				<use xlink:href="#SVGID_35_"  overflow="visible"/>
			</clipPath>
			<path clip-path="url(#SVGID_36_)" fill="#161615" d="M260.924,27.368v8.916c49.83,19.314,86.777,65.58,93.672,121.281h8.246
				C355.775,97.208,315.312,47.184,260.924,27.368"/>
		</g>
	</g>
	<g>
		<g>
			<defs>
				<rect id="SVGID_37_" width="423.781" height="311.568"/>
			</defs>
			<clipPath id="SVGID_38_">
				<use xlink:href="#SVGID_37_"  overflow="visible"/>
			</clipPath>
			<path clip-path="url(#SVGID_38_)" fill="#161615" d="M136.434,277.334c-0.282-1.135-0.431-2.282-0.441-3.443
				c-0.012-1.165,0.098-2.296,0.328-3.4c0.23-1.106,0.574-2.155,1.026-3.143c0.451-0.991,0.998-1.887,1.633-2.693
				c0.636-0.804,1.354-1.487,2.16-2.049c0.805-0.564,1.675-0.968,2.61-1.211c1.093-0.284,2.003-0.271,2.731,0.037
				c0.728,0.311,1.197,0.891,1.407,1.729c0.081,0.325,0.121,0.667,0.118,1.032c-0.002,0.36-0.048,0.731-0.129,1.106
				c-0.084,0.375-0.199,0.743-0.344,1.11c-0.146,0.368-0.324,0.694-0.535,0.993c-0.43,0.041-0.834-0.053-1.214-0.293
				c-0.38-0.239-0.663-0.556-0.847-0.956c0.437-0.613,0.755-1.218,0.953-1.812c0.196-0.597,0.243-1.104,0.138-1.525
				c-0.177-0.714-0.703-0.956-1.573-0.727c-0.365,0.093-0.722,0.269-1.074,0.523c-0.349,0.255-0.688,0.571-1.015,0.949
				c-0.329,0.378-0.63,0.811-0.905,1.297c-0.275,0.483-0.514,1.006-0.712,1.557c-1.396,3.812-1.672,7.409-0.827,10.792
				c0.301,1.201,0.722,2.116,1.27,2.749c0.545,0.634,1.137,0.938,1.771,0.911c0.641-0.339,1.395-1.011,2.259-2.012
				c0.865-1,1.771-2.247,2.715-3.732c0.199,0.121,0.336,0.264,0.414,0.436c-0.308,0.733-0.637,1.446-0.988,2.135
				c-0.35,0.693-0.709,1.333-1.074,1.929c-0.368,0.593-0.74,1.131-1.12,1.604c-0.38,0.476-0.743,0.863-1.091,1.161
				c-1.967,0.51-3.597,0.342-4.89-0.513C137.895,281.021,136.977,279.506,136.434,277.334"/>
		</g>
	</g>
	<g>
		<g>
			<defs>
				<rect id="SVGID_39_" width="423.781" height="311.568"/>
			</defs>
			<clipPath id="SVGID_40_">
				<use xlink:href="#SVGID_39_"  overflow="visible"/>
			</clipPath>
			<path clip-path="url(#SVGID_40_)" fill="#161615" d="M154.405,278.612c-0.927,0.139-1.75-0.078-2.466-0.652
				c-0.717-0.571-1.213-1.407-1.489-2.509c-0.161-0.646-0.233-1.345-0.216-2.09c0.015-0.747,0.115-1.491,0.302-2.239
				c0.184-0.748,0.442-1.475,0.771-2.179c0.33-0.71,0.721-1.341,1.17-1.91c0.706-0.892,1.439-1.436,2.201-1.634
				c0.576,0.143,1.219,0.585,1.93,1.333c0.078-0.021,0.148-0.044,0.21-0.065c0.062-0.024,0.133-0.049,0.211-0.07
				c0.841-0.217,1.449,0.435,1.831,1.958c0.253,1.02,0.331,2.031,0.236,3.027c-0.097,1.001-0.341,1.947-0.731,2.842
				c-0.395,0.896-0.927,1.704-1.6,2.422C156.089,277.564,155.305,278.155,154.405,278.612 M153.708,270.646
				c-0.177,0.443-0.328,0.913-0.457,1.413c-0.13,0.499-0.224,0.993-0.287,1.483c-0.064,0.494-0.093,0.956-0.084,1.393
				c0.01,0.438,0.053,0.818,0.134,1.142c0.098,0.39,0.254,0.747,0.47,1.069c0.215,0.323,0.408,0.487,0.58,0.494
				c0.672-0.346,1.251-0.817,1.732-1.42c0.484-0.599,0.86-1.288,1.131-2.064c0.271-0.778,0.422-1.622,0.459-2.525
				c0.035-0.903-0.065-1.837-0.305-2.794c-0.104-0.419-0.21-0.743-0.319-0.972c-0.109-0.234-0.241-0.422-0.396-0.571
				c-0.645,0.393-1.182,0.895-1.611,1.506C154.326,269.409,153.976,270.023,153.708,270.646"/>
		</g>
	</g>
	<g>
		<g>
			<defs>
				<rect id="SVGID_41_" width="423.781" height="311.568"/>
			</defs>
			<clipPath id="SVGID_42_">
				<use xlink:href="#SVGID_41_"  overflow="visible"/>
			</clipPath>
			<path clip-path="url(#SVGID_42_)" fill="#161615" d="M174.286,253.856c-0.27,0.07-0.521,0.317-0.753,0.74
				c-0.231,0.426-0.449,0.988-0.653,1.694c-0.204,0.7-0.38,1.522-0.525,2.459c-0.145,0.942-0.256,1.964-0.334,3.078
				c0.366-0.097,0.751-0.193,1.154-0.3c0.404-0.106,0.755-0.169,1.053-0.193c0.05,0.06,0.095,0.175,0.136,0.342
				c0.047,0.184,0.076,0.392,0.093,0.621c0.016,0.23-0.003,0.415-0.053,0.552c-0.405,0.072-0.805,0.138-1.204,0.197
				c-0.397,0.062-0.808,0.132-1.228,0.203c-0.155,2.766-0.308,5.177-0.46,7.23c-0.154,2.06-0.328,3.833-0.521,5.325
				c-0.194,1.489-0.413,2.724-0.659,3.702c-0.245,0.977-0.545,1.776-0.898,2.394c-0.351,0.616-0.762,1.089-1.229,1.406
				c-0.471,0.322-1.012,0.561-1.632,0.726c-0.713,0.185-1.339,0.233-1.875,0.14c-0.54-0.099-1.061-0.275-1.565-0.537
				c-0.363,0.576-0.78,1.021-1.251,1.333c-0.471,0.31-1.023,0.55-1.656,0.717c-1.127,0.291-2.183,0.152-3.17-0.418
				c-0.027-0.113-0.025-0.243,0.005-0.388c0.031-0.146,0.079-0.254,0.147-0.323c0.289,0.218,0.637,0.354,1.041,0.414
				c0.402,0.061,0.803,0.035,1.198-0.063c0.413-0.108,0.767-0.299,1.061-0.574c0.294-0.277,0.55-0.675,0.765-1.196
				c0.216-0.523,0.396-1.18,0.544-1.979c0.147-0.797,0.28-1.768,0.398-2.92c0.181-1.771,0.314-3.671,0.4-5.692
				c0.087-2.022,0.175-4.276,0.262-6.764c-0.357,0.126-0.705,0.251-1.046,0.376c-0.34,0.123-0.658,0.239-0.95,0.35
				c-0.08-0.05-0.155-0.126-0.221-0.227c-0.069-0.104-0.115-0.203-0.14-0.3c0.19-0.118,0.491-0.278,0.907-0.482
				c0.413-0.201,0.908-0.43,1.487-0.686c0.061-1.309,0.186-2.504,0.369-3.587c0.187-1.086,0.445-2.038,0.778-2.868
				c0.335-0.825,0.752-1.506,1.253-2.034c0.503-0.523,1.101-0.881,1.798-1.062c0.619-0.159,1.251-0.154,1.893,0.023
				c0.646,0.18,1.251,0.39,1.819,0.64c0.382-0.704,0.82-1.298,1.313-1.791c0.493-0.493,1.02-0.811,1.574-0.954
				c0.173-0.045,0.355-0.078,0.544-0.102c0.188-0.022,0.328-0.049,0.425-0.07c0.113-0.149,0.279-0.303,0.494-0.454
				c0.215-0.149,0.411-0.248,0.585-0.298c0.191-0.047,0.463-0.006,0.814,0.127c-0.068,0.258-0.127,0.604-0.171,1.026
				c-0.047,0.425-0.071,0.84-0.074,1.233c-0.097,1.299-0.323,2.188-0.679,2.656c-0.175,0.047-0.327-0.16-0.459-0.616
				c-0.121-0.35-0.256-0.646-0.41-0.893c-0.154-0.244-0.271-0.53-0.354-0.854c-0.024-0.098-0.047-0.217-0.063-0.357
				C174.344,254.433,174.319,254.194,174.286,253.856 M168.375,276.638c0.084-0.812,0.157-1.729,0.225-2.744
				c0.068-1.017,0.129-2.077,0.185-3.175c0.054-1.098,0.105-2.228,0.154-3.387c0.049-1.157,0.087-2.291,0.115-3.399l-0.454,0.119
				c-0.412,0.105-0.852,0.221-1.319,0.341c-0.467,0.123-0.949,0.248-1.438,0.375c-0.125,2.607-0.259,4.898-0.396,6.876
				c-0.14,1.981-0.301,3.704-0.479,5.181c-0.182,1.47-0.396,2.709-0.643,3.713c-0.247,1.009-0.533,1.843-0.855,2.514
				c0.294,0.167,0.639,0.271,1.029,0.315c0.39,0.045,0.76,0.021,1.109-0.07c0.395-0.101,0.742-0.29,1.034-0.565
				c0.297-0.275,0.552-0.673,0.769-1.192c0.215-0.523,0.401-1.183,0.555-1.979C168.119,278.764,168.257,277.788,168.375,276.638
				 M169.082,262.633c0.044-1.033,0.186-2.048,0.417-3.045c0.232-0.997,0.536-1.927,0.913-2.785
				c-0.408-0.145-0.772-0.221-1.094-0.227c-0.323-0.005-0.549,0.01-0.675,0.041c-0.413,0.107-0.763,0.335-1.048,0.673
				c-0.285,0.343-0.533,0.809-0.74,1.396c-0.208,0.59-0.383,1.292-0.526,2.105c-0.144,0.812-0.275,1.753-0.397,2.819
				c0.483-0.229,0.99-0.412,1.521-0.549C167.984,262.923,168.527,262.777,169.082,262.633"/>
		</g>
	</g>
	<g>
		<g>
			<defs>
				<rect id="SVGID_43_" width="423.781" height="311.568"/>
			</defs>
			<clipPath id="SVGID_44_">
				<use xlink:href="#SVGID_43_"  overflow="visible"/>
			</clipPath>
			<path clip-path="url(#SVGID_44_)" fill="#161615" d="M182.788,259.607c0.187,1.021,0.229,1.927,0.124,2.724
				c-0.105,0.793-0.356,1.531-0.752,2.211c-0.396,0.682-0.92,1.338-1.571,1.971c-0.653,0.638-1.436,1.292-2.349,1.961
				c0.023,0.099,0.045,0.2,0.063,0.305c0.02,0.107,0.043,0.218,0.069,0.331c0.054,0.214,0.123,0.426,0.212,0.646
				s0.196,0.416,0.324,0.588c0.128,0.174,0.277,0.301,0.451,0.389c0.173,0.082,0.371,0.095,0.592,0.037
				c0.429-0.111,0.826-0.318,1.189-0.616c0.362-0.303,0.695-0.646,0.997-1.026c0.302-0.377,0.573-0.776,0.816-1.192
				c0.24-0.418,0.456-0.798,0.641-1.138c0.193,0.101,0.365,0.21,0.506,0.308c-0.471,1.155-1.051,2.164-1.738,3.027
				c-0.689,0.859-1.391,1.478-2.106,1.853c-1.127,0.156-2.081-0.029-2.862-0.559c-0.783-0.531-1.295-1.282-1.537-2.252
				c-0.166-0.663-0.245-1.364-0.233-2.101c0.01-0.733,0.099-1.463,0.263-2.188c0.167-0.727,0.396-1.427,0.69-2.107
				c0.295-0.683,0.639-1.297,1.034-1.845c0.393-0.553,0.825-1.016,1.296-1.4c0.472-0.38,0.968-0.641,1.49-0.778
				C181.151,258.666,181.948,258.947,182.788,259.607 M181.349,260.835c-0.413,0.179-0.813,0.47-1.198,0.882
				c-0.388,0.413-0.722,0.912-1.005,1.503c-0.283,0.594-0.51,1.254-0.683,1.988c-0.171,0.733-0.258,1.498-0.263,2.294
				c1.108-0.976,1.961-2.051,2.565-3.217C181.368,263.122,181.563,261.971,181.349,260.835"/>
		</g>
	</g>
	<g>
		<g>
			<defs>
				<rect id="SVGID_45_" width="423.781" height="311.568"/>
			</defs>
			<clipPath id="SVGID_46_">
				<use xlink:href="#SVGID_45_"  overflow="visible"/>
			</clipPath>
			<path clip-path="url(#SVGID_46_)" fill="#161615" d="M192.989,256.953c0.188,1.017,0.229,1.925,0.125,2.72
				c-0.107,0.794-0.358,1.532-0.752,2.212c-0.397,0.683-0.92,1.341-1.572,1.976s-1.435,1.286-2.348,1.956
				c0.023,0.099,0.045,0.199,0.063,0.308c0.017,0.105,0.042,0.217,0.069,0.329c0.054,0.212,0.124,0.425,0.212,0.646
				c0.088,0.221,0.195,0.415,0.324,0.588c0.126,0.173,0.278,0.3,0.45,0.388c0.173,0.081,0.37,0.096,0.593,0.037
				c0.429-0.112,0.823-0.317,1.188-0.615c0.365-0.307,0.696-0.646,0.998-1.025c0.302-0.377,0.573-0.778,0.816-1.195
				c0.241-0.416,0.457-0.798,0.642-1.137c0.193,0.103,0.363,0.208,0.506,0.307c-0.471,1.158-1.051,2.166-1.739,3.027
				c-0.688,0.86-1.39,1.479-2.105,1.856c-1.128,0.153-2.081-0.033-2.863-0.562c-0.784-0.532-1.295-1.28-1.538-2.255
				c-0.164-0.66-0.243-1.361-0.231-2.097c0.01-0.733,0.097-1.466,0.262-2.188c0.167-0.726,0.397-1.429,0.691-2.109
				c0.294-0.681,0.639-1.295,1.033-1.846c0.395-0.552,0.824-1.014,1.296-1.398c0.471-0.379,0.969-0.64,1.49-0.773
				C191.353,256.006,192.149,256.291,192.989,256.953 M191.55,258.178c-0.412,0.18-0.813,0.472-1.197,0.883
				c-0.389,0.414-0.722,0.911-1.007,1.503c-0.282,0.591-0.51,1.256-0.682,1.989c-0.171,0.733-0.258,1.497-0.263,2.293
				c1.108-0.976,1.961-2.052,2.564-3.218S191.765,259.314,191.55,258.178"/>
		</g>
	</g>
	<g>
		<g>
			<defs>
				<rect id="SVGID_47_" width="423.781" height="311.568"/>
			</defs>
			<clipPath id="SVGID_48_">
				<use xlink:href="#SVGID_47_"  overflow="visible"/>
			</clipPath>
			<path clip-path="url(#SVGID_48_)" fill="#161615" d="M202.523,255.27c-0.103-0.074-0.227-0.264-0.367-0.563
				c-0.145-0.301-0.244-0.563-0.299-0.789c0.428-0.042,0.833-0.112,1.212-0.214c0.382-0.098,0.729-0.188,1.048-0.27
				c0.118-0.543,0.255-1.09,0.414-1.632c0.16-0.543,0.323-1.05,0.486-1.51c0.163-0.456,0.326-0.854,0.486-1.186
				c0.164-0.334,0.297-0.558,0.405-0.667c0.159-0.043,0.367-0.063,0.627-0.073c0.259-0.009,0.526,0,0.805,0.022
				c0.276,0.022,0.527,0.058,0.758,0.101c0.229,0.044,0.396,0.104,0.501,0.179c-0.323,0.734-0.589,1.406-0.799,2.02
				c-0.211,0.614-0.431,1.308-0.658,2.084c0.317-0.081,0.638-0.164,0.964-0.251c0.323-0.083,0.647-0.194,0.967-0.329
				c0.099,0.059,0.188,0.145,0.27,0.254c0.075,0.107,0.13,0.227,0.163,0.357c-0.701,0.509-1.604,0.909-2.714,1.198
				c-0.202,0.883-0.362,1.752-0.479,2.602c-0.115,0.851-0.193,1.661-0.228,2.434c-0.034,0.769-0.034,1.485,0.005,2.149
				c0.041,0.667,0.123,1.249,0.248,1.754c0.18,0.713,0.539,1.042,1.083,0.988c0.459-0.19,0.881-0.428,1.266-0.719
				c0.384-0.292,0.705-0.613,0.972-0.977c0.13,0.12,0.216,0.227,0.257,0.322c-0.06,0.169-0.181,0.377-0.362,0.63
				c-0.18,0.254-0.384,0.509-0.608,0.763c-0.224,0.255-0.444,0.482-0.667,0.676c-0.222,0.195-0.394,0.316-0.517,0.365
				c-0.396,0.102-0.811,0.127-1.248,0.066c-0.437-0.06-0.85-0.168-1.234-0.326c-0.386-0.158-0.72-0.361-1.001-0.607
				c-0.28-0.247-0.457-0.514-0.531-0.807c-0.097-0.389-0.166-0.893-0.212-1.514c-0.045-0.615-0.059-1.302-0.043-2.045
				c0.016-0.748,0.056-1.533,0.119-2.36c0.065-0.828,0.152-1.657,0.268-2.479L202.523,255.27z"/>
		</g>
	</g>
	<g>
		<g>
			<defs>
				<rect id="SVGID_49_" width="423.781" height="311.568"/>
			</defs>
			<clipPath id="SVGID_50_">
				<use xlink:href="#SVGID_49_"  overflow="visible"/>
			</clipPath>
			<path clip-path="url(#SVGID_50_)" fill="#161615" d="M215.426,262.722c-0.926,0.138-1.751-0.077-2.465-0.653
				c-0.72-0.571-1.216-1.405-1.488-2.509c-0.162-0.647-0.235-1.343-0.218-2.089c0.015-0.746,0.115-1.492,0.301-2.238
				c0.185-0.745,0.441-1.473,0.773-2.176c0.33-0.712,0.719-1.345,1.171-1.913c0.705-0.893,1.438-1.433,2.201-1.633
				c0.572,0.143,1.217,0.586,1.928,1.333c0.078-0.02,0.15-0.043,0.209-0.066c0.061-0.025,0.131-0.047,0.211-0.068
				c0.842-0.218,1.453,0.433,1.834,1.955c0.252,1.02,0.33,2.03,0.234,3.031c-0.096,0.998-0.34,1.946-0.734,2.84
				c-0.393,0.895-0.924,1.702-1.6,2.421C217.111,261.676,216.324,262.263,215.426,262.722 M214.729,254.755
				c-0.178,0.445-0.328,0.911-0.457,1.415c-0.129,0.496-0.225,0.993-0.287,1.483c-0.062,0.494-0.09,0.952-0.084,1.393
				c0.012,0.438,0.057,0.816,0.137,1.141c0.096,0.387,0.252,0.748,0.471,1.069c0.213,0.322,0.404,0.488,0.578,0.494
				c0.672-0.346,1.25-0.819,1.73-1.421c0.486-0.602,0.863-1.287,1.135-2.066c0.27-0.773,0.422-1.615,0.457-2.524
				c0.033-0.903-0.064-1.837-0.307-2.792c-0.104-0.417-0.211-0.743-0.316-0.977c-0.109-0.23-0.242-0.419-0.396-0.569
				c-0.646,0.393-1.183,0.893-1.611,1.507C215.346,253.517,214.998,254.134,214.729,254.755"/>
		</g>
	</g>
	<g>
		<g>
			<defs>
				<rect id="SVGID_51_" width="423.781" height="311.568"/>
			</defs>
			<clipPath id="SVGID_52_">
				<use xlink:href="#SVGID_51_"  overflow="visible"/>
			</clipPath>
			<path clip-path="url(#SVGID_52_)" fill="#161615" d="M235.525,246.25c0.061,0.312,0.088,0.646,0.086,0.998
				c-0.006,0.356-0.035,0.686-0.096,0.982c-0.062,0.3-0.145,0.56-0.238,0.772c-0.102,0.218-0.213,0.339-0.34,0.375
				c-0.18,0.028-0.312-0.063-0.398-0.284c-0.012-0.05-0.01-0.132,0.002-0.247s0.025-0.24,0.043-0.385
				c0.014-0.141,0.025-0.285,0.033-0.421c0.006-0.143,0-0.258-0.025-0.356c-0.057-0.227-0.156-0.405-0.297-0.53
				c-0.143-0.129-0.303-0.17-0.475-0.125c-0.635,0.166-1.02,0.693-1.15,1.587c-0.131,0.892,0,2.119,0.391,3.683
				c0.039,0.163,0.07,0.258,0.098,0.283c0.334-0.085,0.631-0.164,0.893-0.231s0.52-0.138,0.773-0.2
				c0.021,0.027,0.045,0.091,0.068,0.186c0.035,0.148,0.031,0.259-0.018,0.339c-0.344,0.175-0.615,0.318-0.816,0.431
				c-0.199,0.111-0.348,0.209-0.447,0.286c-0.098,0.076-0.15,0.145-0.16,0.209c-0.014,0.062-0.004,0.142,0.021,0.239
				c0.03,0.13,0.065,0.258,0.106,0.384c0.039,0.127,0.084,0.285,0.133,0.479c0.338,1.352,0.248,2.538-0.269,3.549
				c-0.514,1.012-1.396,1.749-2.649,2.213c-0.228,0.043-0.474,0.036-0.735-0.015c-0.269-0.051-0.526-0.139-0.789-0.26
				c-0.258-0.124-0.494-0.272-0.705-0.454c-0.215-0.174-0.383-0.369-0.502-0.578c-0.151-0.617-0.176-1.245-0.063-1.872
				c0.112-0.632,0.332-1.215,0.662-1.764c0.33-0.545,0.756-1.03,1.282-1.455c0.529-0.42,1.142-0.727,1.841-0.909
				c-0.104-0.401-0.242-0.791-0.42-1.163c-0.177-0.369-0.355-0.727-0.533-1.069c-0.179-0.339-0.351-0.68-0.519-1.01
				c-0.17-0.326-0.293-0.659-0.377-1.006c-0.108-0.44-0.129-0.896-0.063-1.37c0.065-0.479,0.196-0.936,0.392-1.375
				c0.194-0.443,0.448-0.842,0.766-1.2c0.312-0.36,0.666-0.643,1.056-0.848c0.187,0.002,0.455,0.084,0.81,0.242
				c0.351,0.158,0.707,0.346,1.063,0.564s0.687,0.449,0.981,0.689C235.232,245.854,235.43,246.067,235.525,246.25 M230.443,259.366
				c0.34-0.259,0.641-0.59,0.908-0.986c0.262-0.397,0.471-0.821,0.627-1.276c0.154-0.456,0.258-0.92,0.301-1.398
				c0.041-0.472,0.008-0.924-0.098-1.344c-0.307,0.131-0.617,0.373-0.936,0.722c-0.314,0.353-0.602,0.742-0.846,1.176
				c-0.244,0.435-0.434,0.869-0.562,1.299c-0.131,0.43-0.16,0.782-0.092,1.058C229.84,258.972,230.068,259.223,230.443,259.366"/>
		</g>
	</g>
	<g>
		<g>
			<defs>
				<rect id="SVGID_53_" width="423.781" height="311.568"/>
			</defs>
			<clipPath id="SVGID_54_">
				<use xlink:href="#SVGID_53_"  overflow="visible"/>
			</clipPath>
			<path clip-path="url(#SVGID_54_)" fill="#161615" d="M237.646,246.121c-0.104-0.072-0.227-0.262-0.367-0.562
				c-0.146-0.299-0.24-0.562-0.299-0.788c0.426-0.043,0.834-0.115,1.211-0.214c0.383-0.1,0.73-0.188,1.049-0.272
				c0.117-0.541,0.256-1.087,0.418-1.629c0.158-0.546,0.318-1.051,0.484-1.51c0.16-0.457,0.324-0.854,0.482-1.187
				c0.164-0.334,0.301-0.556,0.406-0.668c0.156-0.044,0.367-0.064,0.627-0.072c0.26-0.006,0.523,0,0.805,0.022
				c0.273,0.022,0.527,0.058,0.76,0.101c0.229,0.043,0.396,0.1,0.504,0.178c-0.324,0.733-0.596,1.407-0.805,2.019
				c-0.211,0.612-0.43,1.31-0.656,2.085c0.316-0.083,0.641-0.169,0.965-0.253c0.322-0.082,0.646-0.194,0.967-0.329
				c0.102,0.061,0.188,0.144,0.268,0.254c0.078,0.11,0.135,0.227,0.164,0.36c-0.699,0.51-1.604,0.907-2.715,1.197
				c-0.199,0.882-0.359,1.75-0.475,2.602c-0.119,0.852-0.195,1.66-0.232,2.434c-0.033,0.767-0.031,1.485,0.008,2.148
				c0.039,0.664,0.119,1.248,0.246,1.753c0.178,0.715,0.541,1.043,1.084,0.987c0.459-0.189,0.883-0.425,1.264-0.717
				c0.383-0.29,0.709-0.614,0.975-0.977c0.131,0.121,0.217,0.225,0.256,0.323c-0.061,0.168-0.18,0.377-0.361,0.631
				c-0.182,0.255-0.383,0.508-0.605,0.765c-0.221,0.252-0.445,0.479-0.664,0.674c-0.225,0.194-0.396,0.313-0.521,0.364
				c-0.395,0.103-0.812,0.125-1.25,0.065c-0.438-0.059-0.848-0.168-1.232-0.325c-0.383-0.159-0.717-0.362-0.998-0.61
				c-0.281-0.243-0.459-0.515-0.533-0.806c-0.096-0.389-0.166-0.893-0.209-1.512c-0.047-0.616-0.059-1.3-0.047-2.046
				c0.02-0.748,0.059-1.532,0.123-2.36c0.062-0.828,0.152-1.654,0.266-2.476L237.646,246.121z"/>
		</g>
	</g>
	<g>
		<g>
			<defs>
				<rect id="SVGID_55_" width="423.781" height="311.568"/>
			</defs>
			<clipPath id="SVGID_56_">
				<use xlink:href="#SVGID_55_"  overflow="visible"/>
			</clipPath>
			<path clip-path="url(#SVGID_56_)" fill="#161615" d="M253.285,241.505c0.16-0.039,0.354-0.059,0.58-0.059
				c0.229,0.002,0.441,0.024,0.641,0.065c0.193,0.044,0.365,0.1,0.508,0.167c0.145,0.064,0.227,0.139,0.246,0.219
				c-0.15,0.762-0.273,1.524-0.369,2.28c-0.1,0.759-0.162,1.478-0.195,2.159c-0.031,0.681-0.031,1.311,0.006,1.891
				c0.029,0.574,0.1,1.065,0.199,1.472c0.115,0.453,0.258,0.813,0.428,1.09c0.172,0.274,0.381,0.45,0.637,0.521
				c-0.156,0.178-0.377,0.347-0.656,0.506c-0.281,0.16-0.541,0.27-0.779,0.335c-0.857,0.221-1.436-0.266-1.734-1.464
				c-0.229-0.925-0.244-2.266-0.039-4.022c-0.135,0.822-0.324,1.614-0.574,2.376c-0.248,0.761-0.521,1.446-0.828,2.057
				c-0.301,0.614-0.633,1.132-0.99,1.558c-0.355,0.43-0.711,0.724-1.061,0.882c-0.586,0.154-1.129,0.006-1.629-0.446
				c-0.504-0.447-0.857-1.095-1.068-1.942c-0.229-0.909-0.273-1.918-0.146-3.024c0.131-1.107,0.385-2.171,0.762-3.187
				c0.381-1.017,0.85-1.904,1.4-2.664c0.552-0.759,1.154-1.222,1.805-1.394c0.172,0.006,0.375,0.06,0.609,0.153
				c0.23,0.093,0.465,0.214,0.695,0.358c0.229,0.146,0.436,0.304,0.613,0.476c0.176,0.163,0.291,0.32,0.342,0.461
				c-0.607,0.262-1.188,0.748-1.725,1.454c-0.543,0.71-0.992,1.514-1.352,2.405c-0.359,0.894-0.607,1.814-0.742,2.759
				c-0.135,0.949-0.111,1.794,0.076,2.534c0.078,0.311,0.232,0.474,0.479,0.496c0.436-0.217,0.867-0.758,1.295-1.615
				c0.426-0.862,0.883-2.141,1.371-3.84c0.084-0.332,0.184-0.699,0.293-1.108c0.107-0.408,0.217-0.832,0.326-1.277
				c0.109-0.441,0.213-0.888,0.312-1.333C253.115,242.362,253.205,241.925,253.285,241.505"/>
		</g>
	</g>
	<g>
		<g>
			<defs>
				<rect id="SVGID_57_" width="423.781" height="311.568"/>
			</defs>
			<clipPath id="SVGID_58_">
				<use xlink:href="#SVGID_57_"  overflow="visible"/>
			</clipPath>
			<path clip-path="url(#SVGID_58_)" fill="#161615" d="M267.209,244.322c-0.068,1.277-0.166,2.448-0.285,3.514
				c-0.123,1.068-0.287,2.063-0.496,2.988c-0.209,0.927-0.465,1.792-0.77,2.606c-0.303,0.811-0.664,1.598-1.082,2.361
				c-0.535,0.969-1.139,1.76-1.814,2.375c-0.672,0.614-1.396,1.022-2.174,1.227c-0.395,0.102-0.799,0.158-1.209,0.173
				c-0.412,0.013-0.807-0.015-1.184-0.079c-0.383-0.066-0.729-0.166-1.041-0.298c-0.312-0.136-0.549-0.301-0.717-0.498
				c-0.053-0.195,0.018-0.394,0.205-0.596c0.232,0.13,0.428,0.223,0.576,0.287c0.152,0.062,0.297,0.113,0.432,0.146
				c0.135,0.035,0.271,0.041,0.41,0.021c0.141-0.021,0.297-0.052,0.469-0.099c0.904-0.233,1.719-0.734,2.449-1.499
				c0.729-0.77,1.354-1.752,1.873-2.948c0.521-1.198,0.922-2.586,1.199-4.167c0.281-1.583,0.428-3.307,0.434-5.169
				c-0.127,0.375-0.279,0.839-0.463,1.385c-0.188,0.546-0.402,1.097-0.652,1.651c-0.25,0.556-0.523,1.069-0.816,1.543
				c-0.297,0.473-0.611,0.817-0.943,1.044c-0.254,0.066-0.531,0.093-0.83,0.074c-0.301-0.017-0.594-0.076-0.879-0.177
				c-0.285-0.098-0.555-0.236-0.801-0.416s-0.439-0.408-0.576-0.685c-0.117-0.469-0.193-0.851-0.232-1.143
				c-0.041-0.289-0.062-0.616-0.062-0.974c-0.016-0.654,0.021-1.407,0.104-2.256s0.217-1.696,0.4-2.548
				c0.188-0.851,0.424-1.664,0.711-2.437c0.287-0.773,0.633-1.409,1.029-1.909c0.127-0.034,0.287-0.062,0.484-0.09
				c0.197-0.024,0.404-0.031,0.627-0.021c0.223,0.013,0.441,0.039,0.652,0.076c0.213,0.041,0.408,0.115,0.586,0.222
				c-0.135,0.205-0.379,0.85-0.732,1.924c-0.359,1.077-0.676,2.574-0.957,4.49c-0.035,0.201-0.066,0.483-0.092,0.852
				c-0.025,0.371-0.043,0.754-0.053,1.155c-0.012,0.398-0.012,0.785,0,1.162c0.008,0.377,0.041,0.673,0.09,0.882
				c0.037,0.131,0.08,0.223,0.133,0.277c0.057,0.057,0.105,0.094,0.145,0.118c0.273-0.122,0.596-0.462,0.963-1.014
				c0.367-0.553,0.74-1.363,1.117-2.425c0.232-0.682,0.438-1.354,0.611-2.009c0.176-0.654,0.34-1.319,0.508-1.981
				c0.164-0.662,0.336-1.344,0.514-2.047c0.182-0.702,0.375-1.428,0.6-2.174c0.205-0.053,0.436-0.088,0.684-0.1
				c0.252-0.014,0.494-0.014,0.732,0.004c0.242,0.015,0.455,0.043,0.646,0.091c0.188,0.046,0.334,0.105,0.438,0.182
				c-0.227,1.196-0.426,2.357-0.597,3.492C267.395,242.022,267.275,243.168,267.209,244.322"/>
		</g>
	</g>
	<g>
		<g>
			<defs>
				<rect id="SVGID_59_" width="423.781" height="311.568"/>
			</defs>
			<clipPath id="SVGID_60_">
				<use xlink:href="#SVGID_59_"  overflow="visible"/>
			</clipPath>
			<path clip-path="url(#SVGID_60_)" fill="#161615" d="M270.555,251.831c-0.115-0.057-0.236-0.168-0.361-0.332
				c-0.127-0.166-0.211-0.332-0.25-0.493c0.617-0.9,1.021-1.715,1.203-2.434c0.186-0.721,0.184-1.45-0.004-2.198
				c-0.123-0.488-0.248-0.898-0.373-1.234c-0.127-0.34-0.301-0.721-0.523-1.146c0.402-0.07,0.812-0.104,1.229-0.1
				c0.412,0.004,0.793,0.043,1.143,0.115c0.348,0.073,0.648,0.184,0.904,0.333c0.26,0.148,0.436,0.313,0.531,0.496
				C273.979,247.723,272.812,250.056,270.555,251.831"/>
		</g>
	</g>
	<g>
		<g>
			<defs>
				<rect id="SVGID_61_" width="423.781" height="311.568"/>
			</defs>
			<clipPath id="SVGID_62_">
				<use xlink:href="#SVGID_61_"  overflow="visible"/>
			</clipPath>
			<path clip-path="url(#SVGID_62_)" fill="#161615" d="M190.531,285.086c0.249,1.004,0.203,1.967-0.141,2.893
				c-0.342,0.93-0.917,1.771-1.722,2.532c0.708,0.262,1.314,0.654,1.823,1.169c0.508,0.516,0.854,1.136,1.036,1.865
				c0.219,0.871,0.175,1.801-0.127,2.789c-0.304,0.982-0.8,1.912-1.494,2.793c-0.691,0.878-1.534,1.662-2.526,2.351
				c-0.993,0.693-2.06,1.185-3.202,1.486c-1.237,0.321-2.379,0.362-3.426,0.128c-1.046-0.237-1.938-0.724-2.681-1.463
				c0.035-0.525,0.095-1.186,0.178-1.972c0.08-0.789,0.181-1.626,0.296-2.509c0.118-0.888,0.241-1.764,0.367-2.643
				c0.128-0.877,0.254-1.67,0.384-2.377c0.256-1.53,0.511-2.813,0.76-3.844c0.25-1.032,0.506-1.866,0.769-2.503
				c-0.803,0.501-1.519,1.021-2.145,1.555c-0.627,0.534-1.065,1.006-1.318,1.416c-0.164-0.062-0.35-0.165-0.548-0.323
				c-0.2-0.154-0.396-0.332-0.589-0.531c-0.193-0.2-0.365-0.41-0.512-0.633c-0.147-0.219-0.254-0.421-0.319-0.614
				c0.34-0.397,0.806-0.817,1.397-1.255c0.591-0.44,1.25-0.856,1.979-1.251c0.728-0.4,1.485-0.759,2.274-1.087
				c0.789-0.324,1.555-0.585,2.301-0.778c1.901-0.495,3.488-0.495,4.762,0.002C189.379,282.772,190.188,283.71,190.531,285.086
				 M182.92,293.248c-0.338-0.063-0.67-0.213-0.997-0.438c-0.159,0.925-0.301,1.821-0.427,2.7c-0.128,0.878-0.232,1.687-0.316,2.436
				c-0.084,0.747-0.142,1.393-0.177,1.933c-0.033,0.542-0.03,0.931,0.012,1.163c0.255,0.07,0.545,0.1,0.869,0.081
				c0.327-0.013,0.719-0.081,1.178-0.202c1.078-0.281,2.069-0.701,2.978-1.267c0.906-0.562,1.665-1.205,2.278-1.923
				c0.614-0.723,1.059-1.479,1.333-2.274c0.273-0.798,0.317-1.565,0.132-2.311c-0.267-1.071-0.91-1.723-1.932-1.954
				c-1.108,0.839-2.438,1.46-3.991,1.864c-0.222,0.059-0.393,0.103-0.512,0.135C183.229,293.222,183.086,293.243,182.92,293.248
				 M185.429,283.621c-0.334,0.087-0.681,0.198-1.043,0.336c-0.362,0.138-0.739,0.302-1.133,0.492
				c0.08,0.046,0.147,0.101,0.207,0.163c0.057,0.063,0.111,0.133,0.165,0.204c-0.096,0.23-0.198,0.56-0.313,0.986
				c-0.111,0.427-0.234,0.92-0.365,1.48c-0.13,0.559-0.258,1.174-0.386,1.843c-0.129,0.676-0.256,1.364-0.383,2.068
				c0.252-0.136,0.568-0.27,0.946-0.416c0.379-0.141,0.757-0.262,1.138-0.357c0.206-0.057,0.411-0.102,0.612-0.137
				c0.204-0.035,0.404-0.061,0.602-0.08c0.728-0.326,1.366-0.697,1.915-1.104c0.547-0.412,1.001-0.84,1.363-1.288
				c0.359-0.447,0.609-0.906,0.748-1.368c0.135-0.468,0.146-0.928,0.034-1.381c-0.194-0.777-0.643-1.288-1.344-1.525
				C187.491,283.293,186.569,283.324,185.429,283.621"/>
		</g>
	</g>
	<g>
		<g>
			<defs>
				<rect id="SVGID_63_" width="423.781" height="311.568"/>
			</defs>
			<clipPath id="SVGID_64_">
				<use xlink:href="#SVGID_63_"  overflow="visible"/>
			</clipPath>
			<path clip-path="url(#SVGID_64_)" fill="#161615" d="M197.983,298.299c-0.926,0.139-1.75-0.076-2.467-0.65
				c-0.717-0.572-1.212-1.405-1.487-2.51c-0.161-0.646-0.232-1.345-0.217-2.091c0.015-0.745,0.117-1.49,0.302-2.237
				c0.185-0.745,0.442-1.473,0.771-2.178c0.332-0.706,0.719-1.343,1.169-1.911c0.708-0.893,1.44-1.435,2.203-1.634
				c0.575,0.144,1.217,0.59,1.929,1.334c0.078-0.02,0.149-0.041,0.21-0.064c0.062-0.025,0.133-0.048,0.211-0.07
				c0.84-0.218,1.451,0.433,1.831,1.957c0.253,1.018,0.333,2.03,0.236,3.026c-0.098,1.004-0.341,1.952-0.734,2.843
				c-0.392,0.895-0.925,1.702-1.598,2.421C199.668,297.255,198.883,297.844,197.983,298.299 M197.287,290.337
				c-0.177,0.443-0.329,0.909-0.458,1.413c-0.129,0.496-0.224,0.995-0.289,1.483c-0.062,0.49-0.09,0.954-0.082,1.39
				c0.009,0.439,0.054,0.821,0.134,1.146c0.097,0.386,0.254,0.744,0.471,1.065c0.215,0.325,0.407,0.489,0.579,0.495
				c0.672-0.347,1.252-0.817,1.734-1.421c0.482-0.599,0.859-1.289,1.13-2.069c0.27-0.773,0.422-1.617,0.457-2.521
				c0.036-0.903-0.063-1.838-0.303-2.792c-0.104-0.418-0.213-0.746-0.32-0.977c-0.109-0.23-0.241-0.42-0.395-0.571
				c-0.646,0.395-1.184,0.896-1.614,1.507C197.902,289.097,197.553,289.714,197.287,290.337"/>
		</g>
	</g>
	<g>
		<g>
			<defs>
				<rect id="SVGID_65_" width="423.781" height="311.568"/>
			</defs>
			<clipPath id="SVGID_66_">
				<use xlink:href="#SVGID_65_"  overflow="visible"/>
			</clipPath>
			<path clip-path="url(#SVGID_66_)" fill="#161615" d="M209.066,295.414c-0.927,0.138-1.75-0.08-2.467-0.652
				c-0.719-0.572-1.214-1.405-1.489-2.509c-0.16-0.646-0.232-1.345-0.218-2.09c0.017-0.744,0.118-1.488,0.303-2.238
				c0.186-0.748,0.441-1.475,0.772-2.181c0.331-0.707,0.722-1.339,1.171-1.909c0.705-0.89,1.438-1.436,2.2-1.632
				c0.576,0.142,1.219,0.586,1.929,1.332c0.078-0.02,0.149-0.043,0.21-0.064c0.063-0.028,0.133-0.05,0.214-0.07
				c0.838-0.218,1.448,0.435,1.829,1.957c0.254,1.021,0.334,2.028,0.236,3.027c-0.1,1.002-0.34,1.949-0.734,2.844
				c-0.393,0.895-0.927,1.702-1.6,2.421C210.75,294.367,209.964,294.956,209.066,295.414 M208.367,287.449
				c-0.173,0.444-0.328,0.911-0.456,1.412c-0.13,0.497-0.226,0.994-0.288,1.484c-0.063,0.494-0.09,0.957-0.082,1.393
				c0.009,0.438,0.052,0.818,0.133,1.143c0.098,0.389,0.253,0.743,0.47,1.066c0.215,0.324,0.409,0.488,0.579,0.494
				c0.674-0.346,1.251-0.819,1.734-1.42c0.483-0.6,0.86-1.288,1.131-2.066s0.423-1.619,0.46-2.524
				c0.035-0.905-0.068-1.837-0.306-2.794c-0.105-0.418-0.211-0.744-0.321-0.973c-0.106-0.232-0.24-0.42-0.396-0.571
				c-0.646,0.392-1.183,0.893-1.61,1.503C208.985,286.211,208.634,286.829,208.367,287.449"/>
		</g>
	</g>
	<g>
		<g>
			<defs>
				<rect id="SVGID_67_" width="423.781" height="311.568"/>
			</defs>
			<clipPath id="SVGID_68_">
				<use xlink:href="#SVGID_67_"  overflow="visible"/>
			</clipPath>
			<path clip-path="url(#SVGID_68_)" fill="#161615" d="M216.6,290.079c-0.146-0.584-0.205-1.433-0.168-2.543
				c0.033-1.114,0.135-2.348,0.303-3.7c0.172-1.357,0.393-2.766,0.666-4.235c0.275-1.468,0.576-2.848,0.904-4.14
				c0.326-1.291,0.668-2.426,1.025-3.397c0.355-0.972,0.695-1.653,1.021-2.048c0.225-0.043,0.488-0.008,0.797,0.102
				c0.305,0.109,0.602,0.261,0.887,0.455c0.283,0.195,0.537,0.408,0.758,0.645c0.217,0.235,0.354,0.466,0.412,0.694
				c-0.568,0.769-1.105,1.706-1.617,2.812c-0.506,1.106-0.957,2.293-1.352,3.56c-0.396,1.265-0.719,2.586-0.977,3.952
				c-0.26,1.367-0.43,2.695-0.514,3.977c0.281-1.026,0.611-1.974,0.98-2.848c0.375-0.878,0.773-1.644,1.199-2.31
				c0.426-0.661,0.867-1.207,1.326-1.629c0.463-0.421,0.93-0.694,1.406-0.819c0.826,0.337,1.346,0.932,1.561,1.789
				c0.129,0.516,0.154,1.065,0.08,1.643c-0.074,0.579-0.227,1.134-0.455,1.665c-0.23,0.538-0.527,1.017-0.881,1.446
				c-0.357,0.429-0.764,0.753-1.213,0.974c0.297,0.528,0.641,1.05,1.035,1.566c0.393,0.517,0.826,1.009,1.305,1.47
				c0.477,0.462,0.994,0.872,1.549,1.228c0.553,0.355,1.146,0.623,1.779,0.804c-0.035,0.182-0.117,0.377-0.234,0.576
				c-0.117,0.201-0.271,0.395-0.463,0.576c-0.191,0.18-0.41,0.337-0.654,0.481c-0.24,0.139-0.492,0.242-0.744,0.309
				c-0.43,0.109-0.885-0.004-1.361-0.342c-0.482-0.341-0.979-0.884-1.482-1.633c-0.404-0.6-0.832-1.335-1.283-2.199
				c-0.455-0.866-0.896-1.775-1.318-2.734c0.186-0.205,0.41-0.49,0.672-0.858c0.264-0.371,0.529-0.79,0.803-1.255
				c1.053-1.737,1.451-3.105,1.201-4.108c-0.031-0.127-0.135-0.171-0.309-0.124c-0.316,0.081-0.652,0.325-1.01,0.731
				c-0.354,0.401-0.709,0.927-1.063,1.567c-0.354,0.646-0.694,1.381-1.021,2.209c-0.322,0.828-0.615,1.706-0.873,2.635
				c-0.107,0.373-0.189,0.793-0.242,1.254c-0.053,0.462-0.082,0.932-0.094,1.406c-0.006,0.48,0.014,0.945,0.061,1.398
				c0.045,0.456,0.115,0.869,0.207,1.24c0.057,0.227,0.127,0.408,0.211,0.543c-0.506,0.08-0.836,0.025-1-0.154
				c-0.176-0.164-0.324-0.294-0.441-0.389c-0.113-0.1-0.23-0.178-0.348-0.233c-0.172-0.076-0.35-0.288-0.541-0.635
				C216.904,291.104,216.74,290.646,216.6,290.079"/>
		</g>
	</g>
	<g>
		<g>
			<defs>
				<rect id="SVGID_69_" width="423.781" height="311.568"/>
			</defs>
			<clipPath id="SVGID_70_">
				<use xlink:href="#SVGID_69_"  overflow="visible"/>
			</clipPath>
			<path clip-path="url(#SVGID_70_)" fill="#161615" d="M235.777,277.221c0.059,0.314,0.088,0.646,0.082,1.001
				c-0.004,0.356-0.035,0.684-0.096,0.98c-0.061,0.301-0.141,0.56-0.236,0.774c-0.098,0.215-0.213,0.339-0.338,0.373
				c-0.182,0.027-0.312-0.063-0.4-0.284c-0.012-0.048-0.012-0.134,0.002-0.247c0.014-0.115,0.027-0.243,0.045-0.387
				c0.012-0.141,0.025-0.281,0.033-0.421c0.004-0.139-0.004-0.258-0.025-0.356c-0.059-0.223-0.158-0.403-0.301-0.528
				c-0.139-0.129-0.299-0.172-0.471-0.125c-0.637,0.166-1.021,0.695-1.15,1.587c-0.131,0.893,0,2.12,0.389,3.683
				c0.041,0.159,0.072,0.257,0.098,0.285c0.332-0.089,0.631-0.165,0.893-0.233c0.264-0.067,0.521-0.136,0.771-0.203
				c0.023,0.03,0.047,0.094,0.072,0.188c0.035,0.146,0.029,0.257-0.018,0.341c-0.346,0.171-0.617,0.318-0.818,0.428
				c-0.199,0.11-0.348,0.211-0.443,0.287c-0.102,0.076-0.156,0.146-0.164,0.21c-0.014,0.062-0.004,0.141,0.021,0.238
				c0.03,0.13,0.067,0.257,0.104,0.383c0.041,0.125,0.088,0.285,0.135,0.477c0.338,1.357,0.25,2.539-0.267,3.553
				c-0.518,1.012-1.397,1.749-2.651,2.212c-0.226,0.046-0.471,0.037-0.735-0.015c-0.269-0.052-0.531-0.139-0.787-0.257
				c-0.26-0.125-0.496-0.275-0.707-0.454c-0.215-0.176-0.381-0.369-0.5-0.577c-0.155-0.621-0.178-1.248-0.063-1.877
				c0.115-0.63,0.334-1.214,0.662-1.763c0.328-0.544,0.758-1.028,1.285-1.454c0.526-0.423,1.137-0.728,1.838-0.907
				c-0.104-0.408-0.242-0.795-0.42-1.166c-0.177-0.37-0.354-0.726-0.533-1.067c-0.178-0.344-0.351-0.683-0.517-1.011
				c-0.17-0.33-0.293-0.663-0.377-1.005c-0.11-0.439-0.133-0.895-0.065-1.373c0.067-0.479,0.196-0.935,0.394-1.374
				c0.192-0.44,0.444-0.839,0.765-1.199c0.313-0.36,0.668-0.645,1.055-0.85c0.187,0.004,0.455,0.086,0.81,0.246
				c0.353,0.156,0.707,0.344,1.063,0.564c0.356,0.216,0.685,0.445,0.981,0.689C235.484,276.828,235.68,277.041,235.777,277.221
				 M230.693,290.34c0.342-0.261,0.643-0.591,0.906-0.988c0.266-0.396,0.475-0.82,0.631-1.277c0.154-0.456,0.256-0.919,0.297-1.397
				c0.041-0.474,0.012-0.923-0.094-1.346c-0.307,0.135-0.617,0.375-0.938,0.725c-0.314,0.352-0.602,0.74-0.848,1.175
				c-0.242,0.437-0.432,0.871-0.562,1.299c-0.129,0.43-0.156,0.782-0.09,1.058C230.088,289.943,230.318,290.198,230.693,290.34"/>
		</g>
	</g>
	<g>
		<g>
			<defs>
				<rect id="SVGID_71_" width="423.781" height="311.568"/>
			</defs>
			<clipPath id="SVGID_72_">
				<use xlink:href="#SVGID_71_"  overflow="visible"/>
			</clipPath>
			<path clip-path="url(#SVGID_72_)" fill="#161615" d="M244.152,275.468c-0.104-0.076-0.229-0.264-0.367-0.564
				c-0.146-0.301-0.242-0.562-0.299-0.79c0.426-0.041,0.83-0.109,1.211-0.212c0.381-0.097,0.729-0.19,1.047-0.27
				c0.117-0.546,0.256-1.089,0.418-1.635c0.156-0.541,0.318-1.046,0.482-1.506c0.164-0.457,0.328-0.855,0.486-1.188
				c0.162-0.331,0.301-0.555,0.404-0.666c0.156-0.043,0.365-0.066,0.627-0.074c0.26-0.008,0.523,0,0.805,0.025
				c0.275,0.02,0.527,0.056,0.76,0.1c0.229,0.043,0.396,0.104,0.5,0.179c-0.32,0.734-0.588,1.407-0.801,2.022
				c-0.211,0.61-0.43,1.304-0.654,2.082c0.314-0.083,0.637-0.165,0.963-0.251c0.324-0.087,0.648-0.198,0.969-0.335
				c0.1,0.063,0.188,0.147,0.266,0.258c0.076,0.108,0.135,0.228,0.166,0.36c-0.701,0.506-1.605,0.904-2.715,1.197
				c-0.203,0.885-0.361,1.749-0.479,2.598c-0.119,0.852-0.193,1.665-0.229,2.436c-0.035,0.769-0.032,1.485,0.006,2.152
				c0.039,0.662,0.121,1.247,0.246,1.751c0.179,0.714,0.537,1.044,1.084,0.989c0.459-0.189,0.882-0.429,1.265-0.719
				c0.385-0.291,0.709-0.614,0.974-0.976c0.131,0.117,0.217,0.227,0.256,0.32c-0.06,0.17-0.181,0.379-0.36,0.632
				c-0.183,0.255-0.384,0.506-0.606,0.763c-0.226,0.254-0.445,0.482-0.666,0.675c-0.224,0.194-0.396,0.317-0.517,0.367
				c-0.396,0.101-0.813,0.125-1.25,0.066c-0.438-0.06-0.851-0.169-1.235-0.328c-0.384-0.158-0.718-0.361-0.998-0.607
				c-0.281-0.246-0.459-0.515-0.533-0.806c-0.097-0.393-0.166-0.893-0.211-1.516c-0.045-0.616-0.06-1.298-0.043-2.046
				c0.017-0.746,0.058-1.533,0.119-2.359c0.063-0.827,0.153-1.654,0.268-2.477L244.152,275.468z"/>
		</g>
	</g>
	<g>
		<g>
			<defs>
				<rect id="SVGID_73_" width="423.781" height="311.568"/>
			</defs>
			<clipPath id="SVGID_74_">
				<use xlink:href="#SVGID_73_"  overflow="visible"/>
			</clipPath>
			<path clip-path="url(#SVGID_74_)" fill="#161615" d="M257.055,282.918c-0.93,0.138-1.75-0.076-2.467-0.651
				c-0.719-0.57-1.215-1.408-1.49-2.508c-0.16-0.647-0.232-1.345-0.215-2.091c0.014-0.744,0.115-1.492,0.301-2.239
				c0.188-0.748,0.443-1.472,0.773-2.179c0.328-0.706,0.719-1.339,1.17-1.907c0.705-0.893,1.438-1.438,2.201-1.635
				c0.574,0.143,1.219,0.585,1.928,1.333c0.078-0.02,0.148-0.043,0.211-0.067c0.059-0.022,0.133-0.047,0.213-0.067
				c0.838-0.219,1.447,0.435,1.828,1.955c0.256,1.02,0.334,2.031,0.236,3.028c-0.096,1.003-0.34,1.951-0.734,2.843
				c-0.393,0.896-0.924,1.702-1.598,2.423C258.738,281.872,257.953,282.46,257.055,282.918 M256.357,274.954
				c-0.182,0.443-0.33,0.911-0.459,1.413c-0.129,0.499-0.227,0.993-0.287,1.485c-0.063,0.49-0.09,0.952-0.082,1.391
				s0.051,0.818,0.133,1.144c0.096,0.386,0.252,0.743,0.469,1.065c0.215,0.325,0.408,0.488,0.58,0.495
				c0.672-0.349,1.25-0.819,1.732-1.424c0.482-0.599,0.859-1.287,1.131-2.064c0.271-0.775,0.424-1.62,0.461-2.522
				c0.033-0.906-0.066-1.842-0.305-2.794c-0.105-0.417-0.211-0.746-0.318-0.976c-0.111-0.232-0.242-0.42-0.398-0.571
				c-0.646,0.392-1.182,0.893-1.611,1.506C256.975,273.713,256.623,274.334,256.357,274.954"/>
		</g>
	</g>
	<g>
		<g>
			<defs>
				<rect id="SVGID_75_" width="423.781" height="311.568"/>
			</defs>
			<clipPath id="SVGID_76_">
				<use xlink:href="#SVGID_75_"  overflow="visible"/>
			</clipPath>
			<path clip-path="url(#SVGID_76_)" fill="#161615" d="M268.375,286.773c-0.023-0.101-0.014-0.195,0.027-0.293
				c0.043-0.099,0.098-0.197,0.152-0.298c0.232,0.129,0.432,0.222,0.592,0.287c0.16,0.062,0.307,0.11,0.439,0.142
				c0.137,0.035,0.271,0.043,0.4,0.024c0.131-0.018,0.281-0.048,0.455-0.094c0.824-0.214,1.555-0.644,2.188-1.28
				c0.634-0.64,1.177-1.466,1.621-2.48c0.449-1.012,0.789-2.196,1.024-3.549c0.235-1.356,0.371-2.854,0.396-4.498
				c-0.144,0.24-0.321,0.518-0.541,0.826c-0.217,0.305-0.45,0.603-0.7,0.893c-0.248,0.287-0.496,0.561-0.746,0.812
				c-0.248,0.256-0.466,0.448-0.649,0.583c-0.281,0.021-0.562-0.031-0.839-0.156c-0.276-0.126-0.534-0.305-0.778-0.536
				c-0.244-0.229-0.455-0.504-0.64-0.826c-0.18-0.325-0.321-0.682-0.418-1.071c-0.157-0.63-0.204-1.309-0.142-2.031
				c0.066-0.725,0.207-1.454,0.427-2.194c0.224-0.739,0.521-1.458,0.896-2.16c0.371-0.699,0.793-1.334,1.271-1.908
				c0.474-0.569,0.978-1.059,1.504-1.467c0.535-0.404,1.088-0.682,1.658-0.83c0.555-0.146,0.997-0.137,1.334,0.027
				c0.338,0.162,0.642,0.51,0.907,1.044c-0.198-0.054-0.435-0.043-0.703,0.027c-0.381,0.099-0.778,0.366-1.204,0.807
				c-0.421,0.438-0.83,0.971-1.222,1.599c-0.394,0.625-0.765,1.327-1.108,2.098c-0.351,0.774-0.632,1.541-0.854,2.306
				c-0.224,0.768-0.377,1.494-0.465,2.194c-0.089,0.693-0.07,1.293,0.053,1.794c0.028,0.115,0.056,0.182,0.076,0.199
				c0.021,0.021,0.049,0.027,0.082,0.021c0.144-0.037,0.313-0.17,0.521-0.395c0.207-0.227,0.432-0.505,0.682-0.837
				c0.244-0.332,0.492-0.707,0.742-1.126c0.252-0.417,0.483-0.835,0.701-1.254c0.485-0.954,0.894-1.986,1.215-3.098
				c0.319-1.108,0.537-2.16,0.644-3.154c0.437-0.079,0.834-0.107,1.192-0.079c0.362,0.027,0.625,0.091,0.783,0.186
				c-0.226,1.403-0.394,2.576-0.503,3.518c-0.11,0.942-0.202,1.776-0.274,2.503c-0.135,1.275-0.271,2.447-0.401,3.506
				c-0.133,1.06-0.291,2.05-0.478,2.971c-0.185,0.917-0.412,1.788-0.688,2.61c-0.272,0.823-0.617,1.631-1.024,2.427
				c-0.192,0.379-0.433,0.727-0.715,1.055c-0.281,0.322-0.58,0.61-0.896,0.865s-0.635,0.468-0.955,0.637
				c-0.318,0.171-0.623,0.292-0.91,0.368c-0.379,0.096-0.777,0.153-1.195,0.168c-0.422,0.016-0.816-0.011-1.197-0.076
				c-0.379-0.064-0.725-0.166-1.025-0.301C268.777,287.139,268.543,286.97,268.375,286.773"/>
		</g>
	</g>
	<g>
		<g>
			<defs>
				<rect id="SVGID_77_" width="423.781" height="311.568"/>
			</defs>
			<clipPath id="SVGID_78_">
				<use xlink:href="#SVGID_77_"  overflow="visible"/>
			</clipPath>
			<path clip-path="url(#SVGID_78_)" fill="#161615" d="M285.688,275.463c-0.93,0.14-1.752-0.078-2.471-0.65
				c-0.715-0.573-1.211-1.408-1.486-2.512c-0.16-0.646-0.232-1.341-0.217-2.09c0.014-0.746,0.117-1.49,0.301-2.238
				c0.188-0.75,0.443-1.474,0.771-2.18c0.332-0.707,0.721-1.342,1.172-1.908c0.703-0.892,1.438-1.438,2.199-1.637
				c0.578,0.146,1.219,0.587,1.93,1.333c0.078-0.019,0.15-0.042,0.211-0.064c0.063-0.023,0.133-0.049,0.211-0.068
				c0.842-0.217,1.449,0.435,1.832,1.957c0.254,1.018,0.332,2.029,0.236,3.027c-0.098,1.002-0.34,1.947-0.734,2.844
				c-0.393,0.895-0.926,1.702-1.6,2.422C287.371,274.415,286.586,275.006,285.688,275.463 M284.986,267.498
				c-0.176,0.443-0.328,0.913-0.457,1.412c-0.129,0.497-0.223,0.992-0.287,1.484c-0.061,0.494-0.092,0.955-0.082,1.392
				c0.008,0.439,0.051,0.819,0.135,1.143c0.094,0.387,0.252,0.745,0.467,1.067c0.217,0.324,0.408,0.49,0.58,0.495
				c0.672-0.347,1.252-0.817,1.736-1.42c0.482-0.598,0.857-1.289,1.131-2.066c0.27-0.776,0.42-1.619,0.457-2.523
				c0.037-0.905-0.064-1.84-0.307-2.792c-0.105-0.421-0.211-0.743-0.318-0.976c-0.107-0.23-0.24-0.419-0.395-0.571
				c-0.646,0.392-1.184,0.895-1.613,1.506C285.605,266.256,285.254,266.876,284.986,267.498"/>
		</g>
	</g>
	<g>
		<g>
			<defs>
				<rect id="SVGID_79_" width="423.781" height="311.568"/>
			</defs>
			<clipPath id="SVGID_80_">
				<use xlink:href="#SVGID_79_"  overflow="visible"/>
			</clipPath>
			<path clip-path="url(#SVGID_80_)" fill="#161615" d="M294.785,274.177c-0.189,0.052-0.383,0.057-0.578,0.013
				c-0.197-0.046-0.379-0.109-0.543-0.195c-0.164-0.089-0.305-0.189-0.42-0.307c-0.113-0.115-0.178-0.214-0.199-0.297
				c-0.049-0.191-0.088-0.451-0.117-0.769c-0.031-0.322-0.031-0.637-0.006-0.945c0.025-0.306,0.08-0.579,0.172-0.821
				c0.096-0.238,0.229-0.38,0.402-0.424c0.445-0.115,0.932-0.074,1.461,0.122c0.531,0.198,0.957,0.46,1.275,0.793
				c-0.141,0.26-0.244,0.545-0.318,0.849c-0.078,0.302-0.158,0.591-0.24,0.862c-0.088,0.272-0.195,0.513-0.33,0.721
				C295.209,273.983,295.025,274.117,294.785,274.177 M293.701,267.608c-0.107-0.437-0.15-1.102-0.129-1.999
				c0.021-0.892,0.086-1.893,0.197-3c0.111-1.106,0.266-2.26,0.457-3.455c0.189-1.196,0.402-2.324,0.635-3.387
				c0.23-1.06,0.479-1.991,0.732-2.789c0.26-0.803,0.518-1.356,0.777-1.663c0.268-0.021,0.564,0.027,0.908,0.139
				c0.338,0.107,0.664,0.248,0.977,0.416c0.312,0.17,0.598,0.359,0.854,0.569c0.254,0.209,0.422,0.404,0.502,0.59
				c-0.639,0.892-1.229,1.946-1.77,3.164c-0.539,1.218-0.99,2.531-1.359,3.937c-0.365,1.407-0.627,2.877-0.785,4.408
				c-0.156,1.533-0.182,3.062-0.07,4.584c-0.201,0-0.406-0.012-0.605-0.037c-0.197-0.022-0.381-0.088-0.539-0.179
				c-0.156-0.1-0.307-0.25-0.441-0.456C293.904,268.246,293.793,267.964,293.701,267.608"/>
		</g>
	</g>
	<g>
		<g>
			<defs>
				<rect id="SVGID_81_" width="423.781" height="311.568"/>
			</defs>
			<clipPath id="SVGID_82_">
				<use xlink:href="#SVGID_81_"  overflow="visible"/>
			</clipPath>
			<path clip-path="url(#SVGID_82_)" fill="#161615" d="M203.9,197.003c0.103-0.037,0.23-0.059,0.384-0.065
				c0.151-0.013,0.294-0.008,0.428,0.014c0.133,0.02,0.248,0.05,0.347,0.087s0.155,0.081,0.173,0.135
				c-0.064,0.518-0.113,1.028-0.144,1.538c-0.031,0.508-0.044,0.992-0.033,1.446c0.008,0.457,0.037,0.875,0.084,1.257
				c0.051,0.383,0.115,0.705,0.201,0.971c0.096,0.297,0.207,0.535,0.332,0.712c0.126,0.175,0.273,0.279,0.448,0.315
				c-0.097,0.124-0.236,0.249-0.417,0.371c-0.18,0.116-0.348,0.203-0.503,0.257c-0.562,0.188-0.969-0.107-1.221-0.894
				c-0.194-0.605-0.264-1.498-0.206-2.679c-0.052,0.555-0.145,1.089-0.276,1.608s-0.285,0.988-0.461,1.411
				c-0.174,0.417-0.369,0.779-0.592,1.083c-0.218,0.301-0.438,0.513-0.664,0.635c-0.385,0.131-0.753,0.057-1.106-0.219
				c-0.354-0.276-0.619-0.692-0.799-1.245c-0.191-0.597-0.271-1.267-0.233-2.012c0.037-0.742,0.158-1.459,0.368-2.155
				c0.206-0.694,0.479-1.31,0.813-1.844c0.333-0.529,0.713-0.864,1.141-1.01c0.113-0.004,0.25,0.02,0.41,0.072
				c0.161,0.054,0.321,0.121,0.48,0.208c0.162,0.09,0.304,0.182,0.429,0.288c0.127,0.104,0.211,0.203,0.25,0.294
				c-0.395,0.205-0.754,0.554-1.085,1.051c-0.328,0.497-0.592,1.052-0.792,1.663c-0.201,0.614-0.323,1.237-0.37,1.874
				c-0.049,0.639,0.007,1.2,0.163,1.684c0.064,0.201,0.177,0.306,0.34,0.31c0.279-0.166,0.542-0.544,0.788-1.137
				c0.246-0.594,0.494-1.469,0.744-2.622c0.042-0.223,0.091-0.475,0.146-0.753c0.054-0.275,0.108-0.565,0.161-0.863
				c0.054-0.3,0.103-0.603,0.148-0.903C203.823,197.575,203.863,197.285,203.9,197.003"/>
		</g>
	</g>
	<g>
		<g>
			<defs>
				<rect id="SVGID_83_" width="423.781" height="311.568"/>
			</defs>
			<clipPath id="SVGID_84_">
				<use xlink:href="#SVGID_83_"  overflow="visible"/>
			</clipPath>
			<path clip-path="url(#SVGID_84_)" fill="#161615" d="M208.342,194.082c0.298-0.006,0.611,0.099,0.945,0.308
				c0.331,0.213,0.612,0.475,0.838,0.784c-0.021,0.325-0.087,0.729-0.195,1.212c-0.109,0.482-0.216,0.974-0.318,1.475
				c-0.104,0.499-0.191,0.968-0.264,1.405c-0.07,0.442-0.081,0.791-0.035,1.044c0.108-0.236,0.225-0.505,0.351-0.813
				c0.126-0.304,0.247-0.611,0.36-0.911c0.116-0.304,0.226-0.583,0.329-0.836c0.102-0.249,0.186-0.438,0.246-0.568
				c0.129-0.276,0.284-0.601,0.464-0.973c0.181-0.371,0.377-0.731,0.592-1.078c0.215-0.352,0.445-0.662,0.689-0.938
				c0.245-0.276,0.494-0.456,0.742-0.538c0.27-0.09,0.525-0.074,0.766,0.054c0.242,0.123,0.447,0.267,0.617,0.435
				c0.004,0.021-0.023,0.062-0.09,0.126c-0.066,0.065-0.145,0.204-0.234,0.42c-0.084,0.243-0.164,0.558-0.234,0.956
				c-0.075,0.393-0.137,0.812-0.186,1.258c-0.045,0.445-0.062,0.887-0.045,1.326c0.016,0.44,0.077,0.827,0.182,1.153
				c0.088,0.266,0.176,0.424,0.268,0.478c0.092,0.051,0.199,0.055,0.322,0.014c0.113-0.035,0.227-0.104,0.334-0.199
				c0.105-0.097,0.193-0.155,0.271-0.179c0.049,0.008,0.098,0.041,0.145,0.1c0.049,0.061,0.08,0.116,0.098,0.172
				c-0.061,0.101-0.133,0.208-0.223,0.321c-0.092,0.111-0.186,0.222-0.291,0.326c-0.105,0.105-0.209,0.2-0.314,0.283
				c-0.106,0.082-0.205,0.141-0.301,0.172c-0.302,0.101-0.562,0.139-0.781,0.115c-0.222-0.027-0.412-0.096-0.564-0.209
				c-0.158-0.11-0.291-0.263-0.398-0.456c-0.107-0.192-0.2-0.409-0.274-0.642c-0.041-0.126-0.076-0.272-0.108-0.439
				c-0.029-0.166-0.048-0.366-0.056-0.605c-0.009-0.238-0.004-0.528,0.012-0.868c0.018-0.34,0.047-0.753,0.087-1.236
				c-0.022,0.009-0.138,0.129-0.35,0.366c-0.212,0.232-0.418,0.558-0.621,0.964c-0.333,0.642-0.62,1.261-0.857,1.856
				c-0.24,0.601-0.471,1.249-0.69,1.96c-0.123,0.408-0.231,0.752-0.33,1.037c-0.098,0.285-0.197,0.485-0.298,0.603
				c-0.261-0.056-0.478-0.178-0.653-0.373c-0.178-0.193-0.332-0.401-0.462-0.628c-0.064-0.202-0.118-0.464-0.159-0.79
				c-0.043-0.329-0.076-0.695-0.099-1.104c-0.023-0.412-0.027-0.847-0.016-1.31c0.014-0.462,0.04-0.928,0.084-1.401
				c0.094-1.065,0.219-1.921,0.375-2.557C208.161,194.509,208.272,194.152,208.342,194.082"/>
		</g>
	</g>
	<g>
		<g>
			<defs>
				<rect id="SVGID_85_" width="423.781" height="311.568"/>
			</defs>
			<clipPath id="SVGID_86_">
				<use xlink:href="#SVGID_85_"  overflow="visible"/>
			</clipPath>
			<path clip-path="url(#SVGID_86_)" fill="#161615" d="M218.1,191.121c0.211-0.067,0.469-0.085,0.779-0.052
				c0.309,0.039,0.604,0.123,0.875,0.256c-0.189-0.408-0.381-0.786-0.58-1.137c-0.199-0.349-0.441-0.7-0.721-1.053
				c-0.279-0.352-0.623-0.725-1.023-1.118c-0.404-0.391-0.889-0.832-1.463-1.325c0-0.104,0.035-0.239,0.104-0.403
				s0.156-0.326,0.257-0.482c0.106-0.158,0.221-0.305,0.344-0.441c0.125-0.136,0.248-0.235,0.377-0.304
				c0.396,0.229,0.806,0.55,1.222,0.955c0.418,0.406,0.815,0.858,1.198,1.36c0.38,0.502,0.72,1.036,1.023,1.603
				c0.303,0.568,0.545,1.128,0.723,1.679c0.177,0.552,0.3,1.138,0.367,1.763c0.071,0.623,0.088,1.249,0.056,1.879
				c-0.035,0.624-0.111,1.238-0.229,1.828c-0.121,0.595-0.281,1.141-0.482,1.643c-0.198,0.5-0.436,0.937-0.707,1.304
				c-0.272,0.367-0.575,0.643-0.909,0.824c-0.74,0.154-1.365,0.104-1.869-0.153c-0.504-0.259-0.864-0.731-1.082-1.409
				c-0.114-0.358-0.188-0.771-0.217-1.229c-0.026-0.46-0.019-0.931,0.028-1.411c0.045-0.478,0.129-0.956,0.244-1.438
				c0.114-0.481,0.26-0.925,0.433-1.333c0.172-0.409,0.362-0.773,0.571-1.091C217.625,191.514,217.852,191.273,218.1,191.121
				 M218.977,199.301c0.322-0.248,0.594-0.652,0.818-1.208c0.223-0.556,0.385-1.176,0.486-1.864c0.1-0.684,0.135-1.395,0.1-2.128
				c-0.037-0.733-0.154-1.413-0.355-2.041c-0.059-0.178-0.094-0.291-0.105-0.332c-0.012-0.045-0.033-0.086-0.059-0.123
				c-0.217,0.188-0.422,0.456-0.617,0.807c-0.199,0.349-0.385,0.737-0.559,1.167c-0.176,0.428-0.318,0.881-0.441,1.354
				c-0.123,0.477-0.223,0.942-0.291,1.404c-0.07,0.458-0.104,0.886-0.104,1.287c0.004,0.398,0.047,0.733,0.137,1.011
				C218.156,199.159,218.486,199.383,218.977,199.301"/>
		</g>
	</g>
</g>
</svg>
