<?xml version="1.0" encoding="utf-8"?>
<!-- Generator: Adobe Illustrator 16.0.0, SVG Export Plug-In . SVG Version: 6.00 Build 0)  -->
<!DOCTYPE svg PUBLIC "-//W3C//DTD SVG 1.1//EN" "http://www.w3.org/Graphics/SVG/1.1/DTD/svg11.dtd">
<svg version="1.1" id="Ebene_1" xmlns="http://www.w3.org/2000/svg" xmlns:xlink="http://www.w3.org/1999/xlink" x="0px" y="0px"
	 width="595.281px" height="595.28px" viewBox="0 123.305 595.281 595.28" enable-background="new 0 123.305 595.281 595.28"
	 xml:space="preserve">
<path d="M525.521,625.572c0,12.79-10.465,23.254-23.254,23.254s-23.252-10.464-23.252-23.254c0-12.789,10.463-23.253,23.252-23.253
	S525.521,612.783,525.521,625.572z M427.857,602.319c-12.789,0-23.252,10.464-23.252,23.253c0,12.79,10.463,23.254,23.252,23.254
	s23.254-10.464,23.254-23.254C451.111,612.783,440.646,602.319,427.857,602.319z M595.281,546.512v120.917
	c0,28.252-22.904,51.156-51.158,51.156H51.157C22.904,718.585,0,695.681,0,667.429V546.512c0-28.252,22.904-51.156,51.157-51.156
	h115.568l-65.574-65.574c-29.299-29.299-8.488-79.409,32.903-79.409h61.272V169.811c0-25.694,20.812-46.506,46.506-46.506h111.614
	c25.695,0,46.508,20.812,46.508,46.506v180.561h61.271c41.391,0,62.086,50.11,32.902,79.409l-65.572,65.574h115.566
	C572.376,495.355,595.281,518.26,595.281,546.512z M291.013,567.091c3.604,3.604,9.533,3.604,13.139,0l163.586-163.585
	c5.813-5.813,1.742-15.929-6.629-15.929H362.75V169.811c0-5.116-4.186-9.301-9.303-9.301H241.833c-5.116,0-9.301,4.186-9.301,9.301
	v217.766h-98.477c-8.255,0-12.44,9.999-6.627,15.929L291.013,567.091L291.013,567.091z M558.076,546.512
	c0-7.673-6.279-13.951-13.953-13.951H391.351l-60.809,60.807c-18.137,18.138-47.668,18.138-65.806,0l-60.807-60.807H51.157
	c-7.673,0-13.952,6.278-13.952,13.951v120.917c0,7.673,6.278,13.951,13.952,13.951h492.966c7.674,0,13.953-6.278,13.953-13.951
	V546.512z"/>
</svg>
