<svg version="1.1" xmlns="http://www.w3.org/2000/svg" xmlns:xlink="http://www.w3.org/1999/xlink">

  <defs>
    <style>
      g {
        display: none;
      }
      g:target,
      g:target g {
        display: inline;
      }
      .blau {
        color: #096fab;
      }
      .weiss {
        color: #ffffff;
        fill: #F07D01;
      }
      .black {
        color: #000000;
      }
    </style>

    <symbol id="menu" viewBox="0 0 50 50">
      <title>Menü</title>
      <path
        fill="currentColor"
        d="M50,42.525v4.981c0,0.674-0.201,1.26-0.634,1.758C48.957,49.748,48.469,50,47.901,50H2.083
    		c-0.568,0-1.056-0.252-1.465-0.735C0.215,48.767,0,48.181,0,47.507v-4.981c0-0.688,0.215-1.274,0.618-1.787
    		c0.409-0.486,0.897-0.727,1.465-0.727h45.819c0.567,0,1.056,0.24,1.465,0.727C49.799,41.251,50,41.837,50,42.525z M50,22.499v4.999
    		c0,0.689-0.201,1.275-0.634,1.758c-0.409,0.499-0.897,0.741-1.465,0.741H2.083c-0.568,0-1.056-0.242-1.465-0.741
    		C0.215,28.773,0,28.188,0,27.498v-4.999c0-0.688,0.215-1.274,0.618-1.758C1.026,20.258,1.515,20,2.083,20h45.819
    		c0.567,0,1.056,0.258,1.465,0.741C49.799,21.225,50,21.811,50,22.499z M50,2.507v4.999c0,0.655-0.201,1.241-0.634,1.758
    		c-0.409,0.482-0.897,0.74-1.465,0.74H2.083c-0.568,0-1.056-0.258-1.465-0.74C0.215,8.746,0,8.16,0,7.505V2.507
    		c0-0.69,0.215-1.276,0.618-1.758C1.026,0.249,1.515,0,2.083,0h45.819c0.567,0,1.056,0.249,1.465,0.749
    		C49.799,1.23,50,1.816,50,2.507z"/>
    </symbol>

    <symbol id="facebook" viewBox="0 0 262.333 260.667">
      <title>facebook</title>
      <path
        fill="currentColor"
        d="M262.5 15.473v233.495c0 8.027-6.504 14.474-14.474 14.474h-66.914V161.839h34.103l5.098-39.608h-39.258V96.918c0-11.484 3.164-19.277 19.629-19.277h20.977v-35.45c-3.633-.469-16.055-1.582-30.586-1.582-30.234 0-50.977 18.457-50.977 52.383v29.238h-34.219v39.609h34.219V263.5H14.473C6.504 263.5 0 256.996 0 249.026V15.473C0 7.504 6.504 1 14.473 1h233.496c8.028 0 14.531 6.504 14.531 14.473z"/>
    </symbol>

    <symbol id="arrow-down" viewBox="0 0 77.992 75.25">
      <title>arrow-down</title>
      <path fill="currentColor" d="M0-.25S64.783 9 77.992 75H0V-.25z"/><path fill="none" stroke="#FFF" stroke-width="2" stroke-miterlimit="10" d="M13.883 38.468L28.914 53.5 44 38.414"/>
      <symbol></defs>

      <g id="arrow-black-right">
        <use class="black" xlink:href="#arrow-black"/>
      </g>
    </svg>
