<?xml version="1.0" encoding="utf-8"?>
<!-- Generator: Adobe Illustrator 16.0.0, SVG Export Plug-In . SVG Version: 6.00 Build 0)  -->
<!DOCTYPE svg PUBLIC "-//W3C//DTD SVG 1.1//EN" "http://www.w3.org/Graphics/SVG/1.1/DTD/svg11.dtd">
<svg version="1.1" id="Ebene_1" xmlns="http://www.w3.org/2000/svg" xmlns:xlink="http://www.w3.org/1999/xlink" x="0px" y="0px"
	 width="151.345px" height="45.521px" viewBox="0 0 151.345 45.521" enable-background="new 0 0 151.345 45.521"
	 xml:space="preserve">
<g>
	<path fill-rule="evenodd" clip-rule="evenodd" d="M3.809,45.431h1.225c1.008,0,1.81-0.18,2.557-0.9
		c0.684-0.656,1.044-1.549,1.044-2.484c0-0.973-0.369-1.883-1.081-2.549c-0.747-0.693-1.53-0.854-2.521-0.854H3.809V45.431
		L3.809,45.431z M4.241,45.026v-5.979h0.783c0.846,0,1.548,0.152,2.197,0.738c0.639,0.586,0.981,1.395,0.981,2.26
		c0,0.811-0.324,1.584-0.9,2.16c-0.648,0.639-1.386,0.82-2.278,0.82H4.241L4.241,45.026z"/>
	<path fill-rule="evenodd" clip-rule="evenodd" d="M11.249,41.56c1.008,0,1.666,0.756,1.666,1.719c0,1-0.576,1.863-1.639,1.863
		c-1.008,0-1.638-0.863-1.638-1.818C9.638,42.423,10.294,41.56,11.249,41.56L11.249,41.56z M13.292,41.271h-0.405v0.721H12.87
		c-0.352-0.521-0.963-0.811-1.603-0.811c-1.251,0-2.035,0.928-2.035,2.143c0,1.217,0.792,2.197,2.052,2.197
		c0.612,0,1.279-0.307,1.585-0.838h0.018v0.748h0.405V41.271L13.292,41.271z"/>
	<path d="M16.771,41.847c-0.18-0.387-0.639-0.666-1.062-0.666c-0.603,0-1.134,0.424-1.134,1.055c0,0.701,0.648,0.945,1.215,1.152
		c0.414,0.143,0.81,0.305,0.81,0.818c0,0.521-0.414,0.936-0.936,0.936c-0.549,0-0.882-0.35-1.036-0.846l-0.396,0.127
		c0.171,0.674,0.738,1.098,1.432,1.098c0.747,0,1.341-0.531,1.341-1.297c0-1.502-2.026-1.018-2.026-2.016
		c0-0.361,0.36-0.648,0.711-0.648c0.324,0,0.594,0.18,0.729,0.469L16.771,41.847L16.771,41.847z"/>
	<path fill-rule="evenodd" clip-rule="evenodd" d="M22.004,42.216c1.125,0.02,1.945-0.594,1.945-1.773
		c0-0.576-0.198-1.115-0.685-1.457c-0.458-0.334-0.999-0.342-1.548-0.342H20.87v6.787h0.432v-3.215h0.216l2.214,3.215h0.495
		L22.004,42.216L22.004,42.216z M21.302,41.812v-2.764h0.279c0.396,0,0.855-0.018,1.215,0.152c0.486,0.217,0.72,0.721,0.72,1.225
		c0,0.406-0.153,0.811-0.477,1.072c-0.342,0.297-0.766,0.314-1.188,0.314H21.302L21.302,41.812z"/>
	<path fill-rule="evenodd" clip-rule="evenodd" d="M28.832,43.388c0.009-1.197-0.738-2.207-1.999-2.207
		c-1.215,0-2.017,1-2.017,2.162c0,1.178,0.783,2.178,2.017,2.178c0.819,0,1.486-0.404,1.864-1.125l-0.342-0.197
		c-0.297,0.557-0.819,0.943-1.467,0.943c-0.963,0-1.692-0.701-1.666-1.754H28.832L28.832,43.388z M25.222,43.009
		c0.072-0.783,0.774-1.449,1.621-1.449c0.855,0,1.485,0.684,1.584,1.449H25.222L25.222,43.009z"/>
	<path d="M29.81,38.003v7.428h0.405v-2.053c0-0.846,0.171-1.818,1.215-1.818c0.909,0,0.999,0.611,0.999,1.359v2.512h0.405v-2.512
		c0-1.072-0.297-1.738-1.369-1.738c-0.54,0-0.99,0.279-1.233,0.738h-0.018v-3.916H29.81L29.81,38.003z"/>
	<path fill-rule="evenodd" clip-rule="evenodd" d="M35.83,41.56c1.008,0,1.666,0.756,1.666,1.719c0,1-0.576,1.863-1.638,1.863
		c-1.008,0-1.639-0.863-1.639-1.818C34.218,42.423,34.875,41.56,35.83,41.56L35.83,41.56z M37.874,41.271h-0.405v0.721H37.45
		c-0.351-0.521-0.963-0.811-1.603-0.811c-1.251,0-2.034,0.928-2.034,2.143c0,1.217,0.792,2.197,2.052,2.197
		c0.612,0,1.279-0.307,1.584-0.838h0.018v0.748h0.405V41.271L37.874,41.271z"/>
	<path fill-rule="evenodd" clip-rule="evenodd" d="M41.271,45.142c-1.026,0-1.638-0.836-1.638-1.809c0-0.99,0.603-1.773,1.657-1.773
		c0.963,0,1.62,0.855,1.62,1.764C42.909,44.278,42.288,45.142,41.271,45.142L41.271,45.142z M39.254,45.431h0.405v-0.748h0.018
		c0.306,0.531,0.972,0.838,1.584,0.838c1.26,0,2.053-0.98,2.053-2.197c0-1.215-0.792-2.143-2.035-2.143
		c-0.639,0-1.251,0.289-1.603,0.811h-0.018v-3.988h-0.405V45.431L39.254,45.431z"/>
	<path fill-rule="evenodd" clip-rule="evenodd" d="M44.848,41.271h-0.405v4.16h0.405V41.271L44.848,41.271z M44.65,39.517
		c-0.207,0-0.369,0.17-0.369,0.369c0,0.207,0.162,0.369,0.369,0.369s0.369-0.162,0.369-0.369
		C45.019,39.687,44.857,39.517,44.65,39.517L44.65,39.517z"/>
	<polygon points="46.798,38.003 46.393,38.003 46.393,45.431 46.798,45.431 46.798,38.003 	"/>
	<path fill-rule="evenodd" clip-rule="evenodd" d="M48.741,41.271h-0.405v4.16h0.405V41.271L48.741,41.271z M48.543,39.517
		c-0.207,0-0.369,0.17-0.369,0.369c0,0.207,0.162,0.369,0.369,0.369s0.369-0.162,0.369-0.369
		C48.912,39.687,48.75,39.517,48.543,39.517L48.543,39.517z"/>
	<polygon points="50.736,41.649 51.466,41.649 51.466,41.271 50.736,41.271 50.736,39.786 50.332,39.786 50.332,41.271 
		49.872,41.271 49.872,41.649 50.332,41.649 50.332,45.431 50.736,45.431 50.736,41.649 	"/>
	<path fill-rule="evenodd" clip-rule="evenodd" d="M53.779,41.56c1.008,0,1.666,0.756,1.666,1.719c0,1-0.577,1.863-1.639,1.863
		c-1.008,0-1.639-0.863-1.639-1.818C52.167,42.423,52.824,41.56,53.779,41.56L53.779,41.56z M55.822,41.271h-0.405v0.721h-0.018
		c-0.351-0.521-0.963-0.811-1.603-0.811c-1.251,0-2.035,0.928-2.035,2.143c0,1.217,0.792,2.197,2.053,2.197
		c0.612,0,1.279-0.307,1.584-0.838h0.018v0.748h0.405V41.271L55.822,41.271z"/>
	<polygon points="57.653,41.649 58.382,41.649 58.382,41.271 57.653,41.271 57.653,39.786 57.248,39.786 57.248,41.271 
		56.789,41.271 56.789,41.649 57.248,41.649 57.248,45.431 57.653,45.431 57.653,41.649 	"/>
	<path fill-rule="evenodd" clip-rule="evenodd" d="M59.642,41.271h-0.405v4.16h0.405V41.271L59.642,41.271z M59.443,39.517
		c-0.207,0-0.369,0.17-0.369,0.369c0,0.207,0.163,0.369,0.369,0.369c0.208,0,0.369-0.162,0.369-0.369
		C59.812,39.687,59.651,39.517,59.443,39.517L59.443,39.517z"/>
	<path fill-rule="evenodd" clip-rule="evenodd" d="M62.942,41.181c-1.207,0-2.161,0.982-2.161,2.18c0,1.18,0.963,2.16,2.161,2.16
		c1.224,0,2.188-0.936,2.188-2.17C65.13,42.118,64.167,41.181,62.942,41.181L62.942,41.181z M62.916,41.56
		c1.026,0,1.81,0.773,1.81,1.801c0,1.008-0.792,1.781-1.81,1.781c-0.981,0-1.729-0.836-1.729-1.781
		C61.187,42.397,61.925,41.56,62.916,41.56L62.916,41.56z"/>
	<path d="M66.514,41.271h-0.405v4.16h0.405v-2.053c0-0.846,0.171-1.818,1.215-1.818c0.91,0,1,0.611,1,1.359v2.512h0.405v-2.512
		c0-1.072-0.297-1.738-1.369-1.738c-0.54,0-0.99,0.279-1.233,0.738h-0.018V41.271L66.514,41.271z"/>
	<path d="M72.615,41.847c-0.18-0.387-0.639-0.666-1.062-0.666c-0.604,0-1.135,0.424-1.135,1.055c0,0.701,0.648,0.945,1.215,1.152
		c0.414,0.143,0.811,0.305,0.811,0.818c0,0.521-0.415,0.936-0.937,0.936c-0.549,0-0.882-0.35-1.035-0.846l-0.396,0.127
		c0.171,0.674,0.738,1.098,1.431,1.098c0.748,0,1.341-0.531,1.341-1.297c0-1.502-2.025-1.018-2.025-2.016
		c0-0.361,0.36-0.648,0.711-0.648c0.324,0,0.594,0.18,0.729,0.469L72.615,41.847L72.615,41.847z"/>
	<polygon points="74.081,45.052 77.475,41.271 73.775,41.271 73.775,41.649 76.628,41.649 73.226,45.431 77.457,45.431 
		77.457,45.052 74.081,45.052 	"/>
	<path fill-rule="evenodd" clip-rule="evenodd" d="M81.82,43.388c0.009-1.197-0.738-2.207-1.999-2.207c-1.215,0-2.017,1-2.017,2.162
		c0,1.178,0.783,2.178,2.017,2.178c0.819,0,1.485-0.404,1.863-1.125l-0.342-0.197c-0.297,0.557-0.819,0.943-1.468,0.943
		c-0.963,0-1.692-0.701-1.665-1.754H81.82L81.82,43.388z M78.21,43.009c0.072-0.783,0.774-1.449,1.62-1.449
		c0.855,0,1.485,0.684,1.585,1.449H78.21L78.21,43.009z"/>
	<path d="M83.202,41.271h-0.404v4.16h0.404v-2.053c0-0.846,0.171-1.818,1.216-1.818c0.909,0,0.999,0.611,0.999,1.359v2.512h0.405
		v-2.512c0-1.072-0.297-1.738-1.368-1.738c-0.54,0-0.99,0.279-1.233,0.738h-0.019V41.271L83.202,41.271z"/>
	<polygon points="87.656,41.649 88.386,41.649 88.386,41.271 87.656,41.271 87.656,39.786 87.251,39.786 87.251,41.271 
		86.792,41.271 86.792,41.649 87.251,41.649 87.251,45.431 87.656,45.431 87.656,41.649 	"/>
	<path d="M89.492,41.271h-0.405v4.16h0.405v-2.125c0-0.611-0.055-1.746,0.855-1.746c0.107,0,0.188,0.027,0.288,0.08l0.216-0.359
		c-0.145-0.062-0.279-0.1-0.441-0.1c-0.441,0-0.738,0.252-0.9,0.631h-0.018V41.271L89.492,41.271z"/>
	<path d="M94.106,41.271v2.35c0,0.803-0.09,1.521-1.089,1.521c-1,0-1.09-0.719-1.09-1.521v-2.35h-0.405v2.494
		c0,0.424-0.009,0.846,0.252,1.197c0.288,0.379,0.774,0.559,1.243,0.559c0.468,0,0.954-0.18,1.242-0.559
		c0.261-0.352,0.252-0.773,0.252-1.197v-2.494H94.106L94.106,41.271z"/>
	<path d="M96.235,41.271H95.83v4.16h0.405v-2.287c0-0.674,0.162-1.584,1.035-1.584c0.811,0,0.928,0.656,0.928,1.305v2.566h0.405
		v-2.395c0-0.721,0.207-1.477,1.071-1.477c0.792,0,0.891,0.566,0.891,1.207v2.664h0.405v-2.611c0-0.908-0.216-1.639-1.287-1.639
		c-0.531,0-0.99,0.262-1.215,0.756c-0.217-0.484-0.64-0.756-1.171-0.756c-0.441,0-0.855,0.227-1.044,0.613h-0.019V41.271
		L96.235,41.271z"/>
	<path fill-rule="evenodd" clip-rule="evenodd" d="M105.695,41.271h-0.404v4.16h0.404V41.271L105.695,41.271z M105.497,39.517
		c-0.206,0-0.369,0.17-0.369,0.369c0,0.207,0.163,0.369,0.369,0.369c0.208,0,0.37-0.162,0.37-0.369
		C105.867,39.687,105.705,39.517,105.497,39.517L105.497,39.517z"/>
	<path d="M107.646,41.271h-0.405v4.16h0.405v-2.053c0-0.846,0.171-1.818,1.215-1.818c0.909,0,0.999,0.611,0.999,1.359v2.512h0.405
		v-2.512c0-1.072-0.297-1.738-1.368-1.738c-0.54,0-0.99,0.279-1.233,0.738h-0.018V41.271L107.646,41.271z"/>
	<polygon points="121.322,45.431 121.736,45.431 120.278,38.417 117.775,44.593 115.282,38.417 113.823,45.431 114.237,45.431 
		115.398,39.813 115.417,39.813 117.775,45.655 120.144,39.813 120.161,39.813 121.322,45.431 	"/>
	<path fill-rule="evenodd" clip-rule="evenodd" d="M123.101,39.362c-0.198,0-0.36,0.162-0.36,0.361c0,0.197,0.162,0.359,0.36,0.359
		s0.36-0.162,0.36-0.359C123.461,39.524,123.299,39.362,123.101,39.362L123.101,39.362z M124.784,39.362
		c-0.198,0-0.36,0.162-0.36,0.361c0,0.197,0.162,0.359,0.36,0.359c0.197,0,0.359-0.162,0.359-0.359
		C125.144,39.524,124.981,39.362,124.784,39.362L124.784,39.362z M125.027,41.271v2.35c0,0.803-0.09,1.521-1.09,1.521
		c-0.999,0-1.089-0.719-1.089-1.521v-2.35h-0.405v2.494c0,0.424-0.009,0.846,0.252,1.197c0.288,0.379,0.774,0.559,1.242,0.559
		s0.954-0.18,1.242-0.559c0.262-0.352,0.252-0.773,0.252-1.197v-2.494H125.027L125.027,41.271z"/>
	<path d="M127.156,41.271h-0.405v4.16h0.405v-2.053c0-0.846,0.171-1.818,1.216-1.818c0.908,0,0.999,0.611,0.999,1.359v2.512h0.405
		v-2.512c0-1.072-0.298-1.738-1.369-1.738c-0.54,0-0.99,0.279-1.233,0.738h-0.018V41.271L127.156,41.271z"/>
	<path fill-rule="evenodd" clip-rule="evenodd" d="M134.347,41.694c-0.414-0.352-0.909-0.514-1.449-0.514
		c-1.225,0-2.143,0.955-2.143,2.162c0,1.215,0.9,2.178,2.134,2.178c0.558,0,1.089-0.207,1.513-0.576v-0.549
		c-0.379,0.459-0.937,0.746-1.531,0.746c-0.981,0-1.71-0.854-1.71-1.799s0.738-1.783,1.719-1.783c0.595,0,1.071,0.242,1.468,0.676
		V41.694L134.347,41.694z"/>
	<path d="M135.448,38.003v7.428h0.405v-2.053c0-0.846,0.171-1.818,1.216-1.818c0.909,0,0.999,0.611,0.999,1.359v2.512h0.405v-2.512
		c0-1.072-0.297-1.738-1.368-1.738c-0.541,0-0.99,0.279-1.233,0.738h-0.019v-3.916H135.448L135.448,38.003z"/>
	<path fill-rule="evenodd" clip-rule="evenodd" d="M143.468,43.388c0.009-1.197-0.738-2.207-1.999-2.207
		c-1.215,0-2.017,1-2.017,2.162c0,1.178,0.783,2.178,2.017,2.178c0.819,0,1.485-0.404,1.863-1.125l-0.342-0.197
		c-0.297,0.557-0.819,0.943-1.468,0.943c-0.963,0-1.691-0.701-1.665-1.754H143.468L143.468,43.388z M139.857,43.009
		c0.072-0.783,0.774-1.449,1.621-1.449c0.854,0,1.484,0.684,1.584,1.449H139.857L139.857,43.009z"/>
	<path d="M144.85,41.271h-0.404v4.16h0.404v-2.053c0-0.846,0.171-1.818,1.216-1.818c0.909,0,0.999,0.611,0.999,1.359v2.512h0.405
		v-2.512c0-1.072-0.297-1.738-1.368-1.738c-0.54,0-0.99,0.279-1.233,0.738h-0.019V41.271L144.85,41.271z"/>
	<path fill-rule="evenodd" clip-rule="evenodd" d="M36.564,23.351h1.329c2.803,0,4.612-1.42,5.074-4.333
		c0.493-3.113-1.2-4.26-4.077-4.26H35.25l-2.174,13.726h2.676L36.564,23.351L36.564,23.351z M37.574,16.979h0.473
		c1.493,0,2.472,0.255,2.192,2.021c-0.282,1.784-1.193,2.13-2.776,2.13h-0.546L37.574,16.979L37.574,16.979z"/>
	<path d="M46.685,21.693h2.039l0.34-2.148h-2.039l0.357-2.257c0.116-0.728,0.222-2.203,1.35-2.203c0.382,0,0.687,0.146,0.989,0.31
		l0.36-2.275c-0.351-0.2-0.755-0.292-1.173-0.292c-2.458,0-3.67,1.911-4.017,4.096l-0.415,2.622h-0.856l-0.34,2.148h0.855
		l-1.076,6.79h2.549L46.685,21.693L46.685,21.693z"/>
	<path fill-rule="evenodd" clip-rule="evenodd" d="M57.422,24.425l0.049-0.311c0.427-2.694-0.541-4.86-3.472-4.86
		c-2.895,0-4.67,2.13-5.1,4.843s0.952,4.678,3.719,4.678c1.875,0,3.599-1,4.501-2.785l-2.288-0.383
		c-0.458,0.711-1.067,1.221-1.904,1.221c-1.329,0-1.564-1.275-1.385-2.402H57.422L57.422,24.425z M51.866,22.841
		c0.275-0.929,0.978-1.803,1.997-1.803c0.983,0,1.424,0.892,1.407,1.803H51.866L51.866,22.841z"/>
	<path d="M62.288,19.545H59.74l-1.416,8.938h2.548l0.701-4.424c0.17-1.074,0.457-2.767,1.968-2.767c1.438,0,1.164,1.384,0.994,2.458
		l-0.75,4.732h2.548l0.865-5.461c0.329-2.075-0.095-3.769-2.498-3.769c-0.91,0-1.851,0.31-2.506,1.11h-0.037L62.288,19.545
		L62.288,19.545z"/>
	<path d="M72.474,19.545h-2.548l-1.416,8.938h2.548l0.701-4.424c0.17-1.074,0.457-2.767,1.968-2.767
		c1.438,0,1.164,1.384,0.994,2.458l-0.75,4.732h2.548l0.866-5.461c0.328-2.075-0.095-3.769-2.498-3.769
		c-0.91,0-1.851,0.31-2.506,1.11h-0.037L72.474,19.545L72.474,19.545z"/>
	<path fill-rule="evenodd" clip-rule="evenodd" d="M82.788,19.545h-2.549l-1.416,8.938h2.549L82.788,19.545L82.788,19.545z
		 M82.347,14.285c-0.837,0-1.62,0.692-1.75,1.511c-0.133,0.837,0.434,1.511,1.271,1.511c0.837,0,1.617-0.673,1.75-1.511
		C83.748,14.977,83.185,14.285,82.347,14.285L82.347,14.285z"/>
	<path fill-rule="evenodd" clip-rule="evenodd" d="M93.489,19.545H90.94l-0.136,0.855h-0.036c-0.4-0.692-1.238-1.147-2.131-1.147
		c-2.657,0-4.525,2.367-4.914,4.823c-0.381,2.404,0.657,4.697,3.278,4.697c0.947,0,1.966-0.455,2.627-1.184h0.036l-0.092,0.584
		c-0.213,1.346-0.501,2.93-2.303,2.93c-0.965,0-1.54-0.619-1.518-1.564h-2.694c-0.25,2.383,1.741,3.713,3.926,3.713
		c3.35,0,4.714-2.402,5.175-5.316L93.489,19.545L93.489,19.545z M88.033,26.517c-1.311,0-1.906-1.291-1.716-2.492
		c0.189-1.202,1.198-2.513,2.509-2.513c1.312,0,1.904,1.311,1.714,2.513C90.35,25.226,89.344,26.517,88.033,26.517L88.033,26.517z"
		/>
	<path fill-rule="evenodd" clip-rule="evenodd" d="M98.21,19.545h-2.549L93.49,33.253h2.548l0.889-5.607h0.036
		c0.395,0.729,1.296,1.129,2.206,1.129c2.64,0,4.507-2.365,4.894-4.805c0.372-2.349-0.8-4.716-3.33-4.716
		c-0.947,0-1.96,0.419-2.652,1.11L98.21,19.545L98.21,19.545z M98.963,26.517c-1.312,0-1.904-1.311-1.714-2.512
		s1.195-2.494,2.506-2.494c1.312,0,1.907,1.292,1.717,2.494S100.272,26.517,98.963,26.517L98.963,26.517z"/>
	<path fill-rule="evenodd" clip-rule="evenodd" d="M114.75,19.545h-2.512l-0.133,0.837c-0.503-0.729-1.387-1.129-2.314-1.129
		c-2.567,0-4.45,2.349-4.825,4.716c-0.383,2.42,0.731,4.805,3.353,4.805c0.929,0,1.938-0.4,2.598-1.109h0.036l-0.13,0.818h2.513
		L114.75,19.545L114.75,19.545z M109.259,26.517c-1.311,0-1.904-1.311-1.714-2.512s1.196-2.494,2.507-2.494s1.925,1.292,1.734,2.494
		C111.597,25.206,110.569,26.517,109.259,26.517L109.259,26.517z"/>
	<path d="M119.313,19.545h-2.549l-1.416,8.938h2.548l0.638-4.023c0.219-1.383,0.649-2.949,2.415-2.949
		c0.382,0,0.729,0.109,1.004,0.328l0.685-2.367c-0.308-0.127-0.657-0.218-1.021-0.218c-0.946,0-1.78,0.437-2.414,1.22h-0.036
		L119.313,19.545L119.313,19.545z"/>
	<path fill-rule="evenodd" clip-rule="evenodd" d="M131.888,19.545h-2.512l-0.133,0.837c-0.504-0.729-1.387-1.129-2.315-1.129
		c-2.566,0-4.449,2.349-4.824,4.716c-0.384,2.42,0.731,4.805,3.353,4.805c0.929,0,1.938-0.4,2.597-1.109h0.037l-0.13,0.818h2.512
		L131.888,19.545L131.888,19.545z M126.396,26.517c-1.312,0-1.904-1.311-1.714-2.512s1.195-2.494,2.507-2.494
		c1.311,0,1.925,1.292,1.734,2.494S127.707,26.517,126.396,26.517L126.396,26.517z"/>
	<path fill-rule="evenodd" clip-rule="evenodd" d="M138.22,28.483h2.549l2.445-15.437h-2.549l-1.159,7.318h-0.036
		c-0.451-0.71-1.335-1.11-2.264-1.11c-2.566,0-4.449,2.349-4.824,4.716c-0.384,2.42,0.731,4.805,3.353,4.805
		c0.929,0,1.938-0.4,2.582-1.129h0.036L138.22,28.483L138.22,28.483z M136.675,26.517c-1.311,0-1.904-1.311-1.714-2.512
		s1.196-2.494,2.507-2.494s1.907,1.292,1.717,2.494S137.985,26.517,136.675,26.517L136.675,26.517z"/>
	<path fill-rule="evenodd" clip-rule="evenodd" d="M151.345,24.425l0.049-0.311c0.427-2.694-0.541-4.86-3.472-4.86
		c-2.895,0-4.67,2.13-5.1,4.843s0.952,4.678,3.719,4.678c1.875,0,3.599-1,4.501-2.785l-2.288-0.383
		c-0.459,0.711-1.067,1.221-1.904,1.221c-1.329,0-1.563-1.275-1.386-2.402H151.345L151.345,24.425z M145.788,22.841
		c0.274-0.929,0.978-1.803,1.996-1.803c0.983,0,1.425,0.892,1.408,1.803H145.788L145.788,22.841z"/>
	<path d="M12.127,3.417C12.127,1.53,13.658,0,15.545,0c1.888,0,3.418,1.53,3.418,3.417s-1.53,3.418-3.418,3.418
		C13.658,6.835,12.127,5.305,12.127,3.417L12.127,3.417z"/>
	<path fill-rule="evenodd" clip-rule="evenodd" d="M21.771,26.702c-1.88,2.135-4.642,3.482-7.711,3.482
		c-5.667,0-10.261-4.594-10.261-10.26c0-4.18,2.5-7.777,6.087-9.375l-1.675,9.097c-0.262,1.398,1.021,2.648,2.274,2.7l7.481,0.202
		c0.396,0.017,0.679,0.143,0.921,0.442L21.771,26.702L21.771,26.702z M17.035,10.097c4.227,1.269,7.286,5.189,7.286,9.828
		c0,0.838-0.098,1.654-0.288,2.435l-3.023-3.834c-0.253-0.296-0.448-0.496-0.794-0.539l-3.528-0.419
		c-0.501-0.071-0.855-0.423-0.787-0.805L17.035,10.097L17.035,10.097z M0,19.925c0-5.051,2.664-9.48,6.663-11.959l14.848,0.009
		c3.987,2.481,6.609,6.908,6.609,11.95c0,7.766-6.295,14.059-14.06,14.059S0,27.69,0,19.925L0,19.925z"/>
</g>
</svg>
